<?xml version="1.0" encoding="utf-8"?>
<!-- Generator: Adobe Illustrator 28.1.0, SVG Export Plug-In . SVG Version: 6.00 Build 0)  -->
<svg version="1.1" id="dots" xmlns:sketch="http://www.bohemiancoding.com/sketch/ns"
	 xmlns="http://www.w3.org/2000/svg" xmlns:xlink="http://www.w3.org/1999/xlink" x="0px" y="0px" viewBox="0 0 99 99"
	 style="enable-background:new 0 0 99 99;" xml:space="preserve">
<style type="text/css">
	.st0{fill:#C15232;}
</style>
<path class="st0" d="M84.9,7.1C84.9,3.2,88,0,91.9,0l0,0C95.8,0,99,3.2,99,7.1l0,0c0,3.9-3.2,7.1-7.1,7.1l0,0
	C88,14.1,84.9,11,84.9,7.1z M42.4,7.1c0-3.9,3.2-7.1,7.1-7.1l0,0c3.9,0,7.1,3.2,7.1,7.1l0,0c0,3.9-3.2,7.1-7.1,7.1l0,0
	C45.6,14.1,42.4,11,42.4,7.1z M0,7.1C0,3.2,3.2,0,7.1,0l0,0c3.9,0,7.1,3.2,7.1,7.1l0,0c0,3.9-3.1,7.1-7.1,7.1l0,0
	C3.2,14.1,0,11,0,7.1z"/>
<path class="st0" d="M84.9,91.9c0-3.9,3.2-7.1,7.1-7.1l0,0c3.9,0,7.1,3.2,7.1,7.1l0,0c0,3.9-3.2,7.1-7.1,7.1l0,0
	C88,99,84.9,95.8,84.9,91.9z M42.4,91.9c0-3.9,3.2-7.1,7.1-7.1l0,0c3.9,0,7.1,3.2,7.1,7.1l0,0c0,3.9-3.2,7.1-7.1,7.1l0,0
	C45.6,99,42.4,95.8,42.4,91.9z M0,91.9c0-3.9,3.1-7.1,7-7.1l0,0c3.9,0,7.1,3.2,7.1,7.1l0,0c0,3.9-3.1,7.1-7.1,7.1l0,0
	C3.2,99,0,95.8,0,91.9z"/>
<path class="st0" d="M7.1,42.4c3.9,0,7.1,3.2,7.1,7.1l0,0c0,3.9-3.2,7.1-7.1,7.1l0,0c-3.9,0-7.1-3.2-7.1-7.1l0,0
	C0,45.6,3.2,42.4,7.1,42.4z"/>
<path class="st0" d="M91.9,42.4c3.9,0,7.1,3.2,7.1,7.1l0,0c0,3.9-3.2,7.1-7.1,7.1l0,0c-3.9,0-7.1-3.2-7.1-7.1l0,0
	C84.9,45.6,88,42.4,91.9,42.4z"/>
</svg>
