<?xml version="1.0" encoding="utf-8"?>
<!-- Generator: Adobe Illustrator 28.0.0, SVG Export Plug-In . SVG Version: 6.00 Build 0)  -->
<svg version="1.1" id="border" xmlns="http://www.w3.org/2000/svg" xmlns:xlink="http://www.w3.org/1999/xlink" x="0px" y="0px"
	 viewBox="0 0 1912.4 9.9" style="enable-background:new 0 0 1912.4 9.9;" xml:space="preserve">
<style type="text/css">
	.st0{fill:#004356;}
</style>
<path id="border-path" class="st0" d="M1908.5,0c0,3.4-2.7,6.1-6.1,6.1c-3.4,0-6.1-2.7-6.1-6.1h-7.7c0,3.4-2.7,6.1-6.1,6.1
	c-3.4,0-6.1-2.7-6.1-6.1h-7.7c0,0.4,0,0.8-0.1,1.2c-0.6,2.8-3.1,4.9-6,4.9c-1.6,0-3.1-0.6-4.2-1.7c-1.2-1.1-1.9-2.7-1.9-4.4h-7.7
	c0,3.4-2.7,6.1-6.1,6.1c-3.4,0-6.1-2.7-6.1-6.1h-7.7c0,3.4-2.7,6.1-6.1,6.1c-3.4,0-6.1-2.7-6.1-6.1h-7.7c0,3.4-2.7,6.1-6.1,6.1
	c-3.4,0-6.1-2.7-6.1-6.1h-7.7c0,3.4-2.7,6.1-6.1,6.1c-3.4,0-6.1-2.7-6.1-6.1h-7.7c0,3.4-2.7,6.1-6.1,6.1c-3.4,0-6.1-2.7-6.1-6.1
	h-7.7c0,3.4-2.7,6.1-6.1,6.1c-3.4,0-6.1-2.7-6.1-6.1h-7.7c0,3.4-2.7,6.1-6.1,6.1c-3.4,0-6.1-2.7-6.1-6.1h-7.7c0,3.4-2.7,6.1-6.1,6.1
	c-3.4,0-6.1-2.7-6.1-6.1h-7.7c0,3.4-2.7,6.1-6.1,6.1c-3.4,0-6.1-2.7-6.1-6.1h-7.7l0,0c0,3.4-2.7,6.1-6.1,6.1c-3.4,0-6.1-2.7-6.1-6.1
	h-7.7c0,3.4-2.7,6.1-6.1,6.1c-3.4,0-6.1-2.7-6.1-6.1h-7.7c0,3.4-2.7,6.1-6.1,6.1c-3.4,0-6.1-2.7-6.1-6.1h-7.7c0,3.4-2.7,6.1-6.1,6.1
	c-3.4,0-6.1-2.7-6.1-6.1h-7.7c0,0.4,0,0.8-0.1,1.2c-0.6,2.8-3.1,4.9-6,4.9c-1.6,0-3.1-0.6-4.2-1.7c-1.2-1.1-1.9-2.7-1.9-4.4h-7.7
	c0,3.4-2.7,6.1-6.1,6.1c-3.4,0-6.1-2.7-6.1-6.1h-7.7c0,3.4-2.7,6.1-6.1,6.1c-3.4,0-6.1-2.7-6.1-6.1h-7.7c0,3.4-2.7,6.1-6.1,6.1
	c-3.4,0-6.1-2.7-6.1-6.1h-7.7c0,3.4-2.7,6.1-6.1,6.1c-3.4,0-6.1-2.7-6.1-6.1h-7.7c0,3.4-2.7,6.1-6.1,6.1c-3.4,0-6.1-2.7-6.1-6.1
	h-7.7c0,3.4-2.7,6.1-6.1,6.1c-3.4,0-6.1-2.7-6.1-6.1h-7.7c0,3.4-2.7,6.1-6.1,6.1c-3.4,0-6.1-2.7-6.1-6.1h-7.7c0,3.4-2.7,6.1-6.1,6.1
	c-3.4,0-6.1-2.7-6.1-6.1h-7.7c0,3.4-2.7,6.1-6.1,6.1c-3.4,0-6.1-2.7-6.1-6.1h-7.7c0,3.4-2.7,6.1-6.1,6.1c-3.4,0-6.1-2.7-6.1-6.1
	h-7.7c0,3.4-2.7,6.1-6.1,6.1c-3.4,0-6.1-2.7-6.1-6.1h-7.7c0,3.4-2.7,6.1-6.1,6.1c-3.4,0-6.1-2.7-6.1-6.1h-7.7c0,3.4-2.7,6.1-6.1,6.1
	c-3.4,0-6.1-2.7-6.1-6.1h-7.7c0,0.4,0,0.8-0.1,1.2c-0.6,2.8-3.1,4.9-6,4.9c-1.6,0-3.1-0.6-4.2-1.7c-1.2-1.1-1.9-2.7-1.9-4.4h-7.7
	c0,3.4-2.7,6.1-6.1,6.1c-3.4,0-6.1-2.7-6.1-6.1h-7.7c0,3.4-2.7,6.1-6.1,6.1c-3.4,0-6.1-2.7-6.1-6.1h-7.7c0,3.4-2.7,6.1-6.1,6.1
	c-3.4,0-6.1-2.7-6.1-6.1h-7.7c0,3.4-2.7,6.1-6.1,6.1c-3.4,0-6.1-2.7-6.1-6.1h-7.7c0,3.4-2.7,6.1-6.1,6.1c-3.4,0-6.1-2.7-6.1-6.1
	h-7.7c0,3.4-2.7,6.1-6.1,6.1c-3.4,0-6.1-2.7-6.1-6.1h-7.7c0,3.4-2.7,6.1-6.1,6.1c-3.4,0-6.1-2.7-6.1-6.1h-7.7c0,3.4-2.7,6.1-6.1,6.1
	c-3.4,0-6.1-2.7-6.1-6.1h-7.7c0,3.4-2.7,6.1-6.1,6.1c-3.4,0-6.1-2.7-6.1-6.1h-7.7c0,3.4-2.7,6.1-6.1,6.1c-3.4,0-6.1-2.7-6.1-6.1
	h-7.7c0,3.4-2.7,6.1-6.1,6.1c-3.4,0-6.1-2.7-6.1-6.1h-7.7c0,3.4-2.7,6.1-6.1,6.1c-3.4,0-6.1-2.7-6.1-6.1h-7.7c0,3.4-2.7,6.1-6.1,6.1
	c-3.4,0-6.1-2.7-6.1-6.1h-7.7c0,0.4,0,0.8-0.1,1.2c-0.6,2.8-3.1,4.9-6,4.9c-1.6,0-3.1-0.6-4.2-1.7c-1.2-1.1-1.9-2.7-1.9-4.4h-7.7
	c0,3.4-2.7,6.1-6.1,6.1c-3.4,0-6.1-2.7-6.1-6.1h-7.7c0,3.4-2.7,6.1-6.1,6.1c-3.4,0-6.1-2.7-6.1-6.1h-7.7c0,3.4-2.7,6.1-6.1,6.1
	c-3.4,0-6.1-2.7-6.1-6.1h-7.7c0,3.4-2.7,6.1-6.1,6.1c-3.4,0-6.1-2.7-6.1-6.1h-7.7c0,3.4-2.7,6.1-6.1,6.1c-3.4,0-6.1-2.7-6.1-6.1
	h-7.7c0,3.4-2.7,6.1-6.1,6.1c-3.4,0-6.1-2.7-6.1-6.1h-7.7c0,3.4-2.7,6.1-6.1,6.1c-3.4,0-6.1-2.7-6.1-6.1h-7.7c0,3.4-2.7,6.1-6.1,6.1
	c-3.4,0-6.1-2.7-6.1-6.1h-7.7c0,3.4-2.7,6.1-6.1,6.1c-3.4,0-6.1-2.7-6.1-6.1h-7.7c0,3.4-2.7,6.1-6.1,6.1c-3.4,0-6.1-2.7-6.1-6.1
	h-7.7c0,3.4-2.7,6.1-6.1,6.1c0,0,0,0,0,0c-3.4,0-6.1-2.7-6.1-6.1H793c0,3.4-2.7,6.1-6.1,6.1c-3.4,0-6.1-2.7-6.1-6.1H773
	c0,3.4-2.7,6.1-6.1,6.1c-3.4,0-6.1-2.7-6.1-6.1h-7.7c0,0.4,0,0.8-0.1,1.2c-0.6,2.8-3.1,4.9-6,4.9c-1.6,0-3.1-0.6-4.2-1.7
	c-1.2-1.1-1.9-2.7-1.9-4.4h-7.7c0,3.4-2.7,6.1-6.1,6.1c-3.4,0-6.1-2.7-6.1-6.1h-7.7c0,3.4-2.7,6.1-6.1,6.1c-3.4,0-6.1-2.7-6.1-6.1
	h-7.7c0,3.4-2.7,6.1-6.1,6.1c-3.4,0-6.1-2.7-6.1-6.1h-7.7c0,3.4-2.7,6.1-6.1,6.1c-3.4,0-6.1-2.7-6.1-6.1h-7.7c0,3.4-2.7,6.1-6.1,6.1
	c-3.4,0-6.1-2.7-6.1-6.1h-7.7c0,3.4-2.7,6.1-6.1,6.1c-3.4,0-6.1-2.7-6.1-6.1h-7.7c0,3.4-2.7,6.1-6.1,6.1c-3.4,0-6.1-2.7-6.1-6.1
	h-7.7c0,3.4-2.7,6.1-6.1,6.1c-3.4,0-6.1-2.7-6.1-6.1h-7.7c0,3.4-2.7,6.1-6.1,6.1c-3.4,0-6.1-2.7-6.1-6.1h-7.7c0,3.4-2.7,6.1-6.1,6.1
	c-3.4,0-6.1-2.7-6.1-6.1H534c0,3.4-2.7,6.1-6.1,6.1c-3.4,0-6.1-2.7-6.1-6.1h-7.7c0,3.4-2.7,6.1-6.1,6.1c-3.4,0-6.1-2.7-6.1-6.1h-7.7
	c0,3.4-2.7,6.1-6.1,6.1c-3.4,0-6.1-2.7-6.1-6.1h-7.7c0,0.4,0,0.8-0.1,1.2c-0.6,2.8-3.1,4.9-6,4.9c-1.6,0-3.1-0.6-4.2-1.7
	C462.7,3.3,462,1.7,462,0h-7.7c0,3.4-2.7,6.1-6.1,6.1c-3.4,0-6.1-2.7-6.1-6.1h-7.7c0,3.4-2.7,6.1-6.1,6.1c-3.4,0-6.1-2.7-6.1-6.1
	h-7.7c0,3.4-2.7,6.1-6.1,6.1c-3.4,0-6.1-2.7-6.1-6.1h-7.7c0,3.4-2.7,6.1-6.1,6.1c-3.4,0-6.1-2.7-6.1-6.1h-7.7c0,3.4-2.7,6.1-6.1,6.1
	c-3.4,0-6.1-2.7-6.1-6.1h-7.7c0,3.4-2.7,6.1-6.1,6.1c-3.4,0-6.1-2.7-6.1-6.1h-7.7c0,3.4-2.7,6.1-6.1,6.1c-3.4,0-6.1-2.7-6.1-6.1
	h-7.7c0,3.4-2.7,6.1-6.1,6.1c-3.4,0-6.1-2.7-6.1-6.1H295c0,3.4-2.7,6.1-6.1,6.1c-3.4,0-6.1-2.7-6.1-6.1H275c0,3.4-2.7,6.1-6.1,6.1
	c-3.4,0-6.1-2.7-6.1-6.1h-7.7c0,3.4-2.7,6.1-6.1,6.1c-3.4,0-6.1-2.7-6.1-6.1h-7.7c0,3.4-2.7,6.1-6.1,6.1c-3.4,0-6.1-2.7-6.1-6.1
	h-7.7c0,3.4-2.7,6.1-6.1,6.1c-3.4,0-6.1-2.7-6.1-6.1h-7.7c0,0.4,0,0.8-0.1,1.2c-0.6,2.8-3.1,4.9-6,4.9c-1.6,0-3.1-0.6-4.2-1.7
	c-1.2-1.1-1.9-2.7-1.9-4.4h-7.7c0,3.4-2.7,6.1-6.1,6.1c-3.4,0-6.1-2.7-6.1-6.1h-7.7c0,3.4-2.7,6.1-6.1,6.1c-3.4,0-6.1-2.7-6.1-6.1
	h-7.7c0,3.4-2.7,6.1-6.1,6.1c-3.4,0-6.1-2.7-6.1-6.1h-7.7c0,3.4-2.7,6.1-6.1,6.1c-3.4,0-6.1-2.7-6.1-6.1h-7.7c0,3.4-2.7,6.1-6.1,6.1
	c-3.4,0-6.1-2.7-6.1-6.1h-7.7c0,3.4-2.7,6.1-6.1,6.1c-3.4,0-6.1-2.7-6.1-6.1h-7.7c0,3.4-2.7,6.1-6.1,6.1c-3.4,0-6.1-2.7-6.1-6.1H36
	c0,3.4-2.7,6.1-6.1,6.1c-3.4,0-6.1-2.7-6.1-6.1h-7.7c0,3.4-2.7,6.1-6.1,6.1C6.6,6.1,3.9,3.4,3.9,0H0v9.9h1912.4V0H1908.5z"/>
</svg>
