<?xml version="1.0" encoding="utf-8"?>
<!-- Generator: Adobe Illustrator 27.9.0, SVG Export Plug-In . SVG Version: 6.00 Build 0)  -->
<svg version="1.1" id="character-ingrained" xmlns="http://www.w3.org/2000/svg" xmlns:xlink="http://www.w3.org/1999/xlink"
	 x="0px" y="0px" viewBox="0 0 118.3 122.2" style="enable-background:new 0 0 118.3 122.2;" xml:space="preserve">
<style type="text/css">
	.st0{fill:#D5D5D5;}
</style>
<path id="logo-icon" class="st0" d="M45.9,46.6l12.3-11.7l23,21.9v23.4L45.9,46.6z M35.2,56.8v23.4l18.3-17.5L41.2,51L35.2,56.8z"/>
<g id="letters">
	<path id="Path_6174" class="st0" d="M5.7,47.2C2,45.9,0.1,41.7,1.4,38c0-0.1,0.1-0.2,0.1-0.4c0.9-2.3,2.9-4,5.3-4.4l0.5,3.2
		c-1.3,0.2-2.4,1.1-2.8,2.4c-0.9,2-0.1,4.3,1.9,5.2c0.2,0.1,0.3,0.1,0.5,0.2c1.9,0.9,4.3,0.1,5.2-1.8c0.1-0.2,0.1-0.3,0.2-0.5
		c0.5-1.2,0.4-2.6-0.4-3.7l2.5-2c1.5,2,1.8,4.6,0.8,6.8c-1.4,3.7-5.5,5.6-9.2,4.3C5.9,47.3,5.8,47.3,5.7,47.2"/>
	<path id="Path_6175" class="st0" d="M14.9,17.8l10.9,9.1l-2.1,2.5l-4.3-3.6l-2.8,3.4l4.3,3.6l-2.1,2.5L7.9,26.1l2.1-2.5l4.2,3.5
		l2.8-3.4l-4.2-3.5L14.9,17.8z"/>
	<path id="Path_6176" class="st0" d="M34.1,18.2L29.7,21l0.6,2.3l-3,1.9l-3.5-14.5l3.5-2.2l11.6,9.3l-3,1.9L34.1,18.2z M31.7,16.1
		l-4.2-3.5l1.4,5.3L31.7,16.1z"/>
	<path id="Path_6177" class="st0" d="M44.5,11.4L43,11.8l1.2,4.5l-3.1,0.8L37.4,3.5L42.9,2c2.6-0.7,5.2,0.8,5.9,3.4c0,0,0,0,0,0
		c0.4,1.7-0.1,3.5-1.4,4.6l4.3,4.2l-3.4,0.9L44.5,11.4z M42.3,9l2.3-0.6c0.9-0.3,1.4-1.3,1.1-2.2c0,0,0,0,0,0
		c-0.2-0.9-1.1-1.5-2-1.3c0,0,0,0,0,0l-2.3,0.6L42.3,9z"/>
	<path id="Path_6178" class="st0" d="M62.9,12.1l-5.3-0.2l-0.8,2.2l-3.5-0.1L58.7,0l4.1,0.2l4.2,14.3l-3.5-0.1L62.9,12.1z M62.1,9
		l-1.4-5.3l-1.9,5.1L62.1,9z"/>
	<path id="Path_6179" class="st0" d="M70.7,8.2c1.3-3.7,5.4-5.7,9.1-4.5c0.1,0,0.2,0.1,0.4,0.1c2.3,0.8,4,2.8,4.5,5.2l-3.2,0.5
		c-0.3-1.3-1.2-2.4-2.5-2.8c-2-0.9-4.3,0-5.2,2c-0.1,0.2-0.1,0.3-0.2,0.5c-0.9,2,0,4.3,1.9,5.2c0.2,0.1,0.3,0.1,0.5,0.2
		c1.2,0.5,2.6,0.3,3.7-0.5l2,2.5c-2,1.5-4.5,1.9-6.8,1c-3.7-1.3-5.7-5.4-4.5-9.1C70.6,8.4,70.7,8.3,70.7,8.2"/>
	<path id="Path_6180" class="st0" d="M97.5,18.3l-2.9-2.2l-6.7,8.7l-2.6-2l6.7-8.7l-2.9-2.2l1.9-2.5l8.3,6.4L97.5,18.3z"/>
	<path id="Path_6181" class="st0" d="M100.5,34.2L98,36.1l-5.4-7l11.2-8.7l5.4,7l-2.5,1.9l-3.4-4.4l-1.9,1.4l3.1,4l-2.4,1.9l-3.1-4
		l-2,1.5L100.5,34.2z"/>
	<path id="Path_6182" class="st0" d="M105.8,41.7l-0.6-1.4l-4.3,1.7l-1.2-3l13.2-5.2L115,39c1,2.5-0.2,5.3-2.7,6.3c0,0,0,0,0,0
		c-1.6,0.6-3.5,0.3-4.8-0.9l-3.7,4.7l-1.3-3.2L105.8,41.7z M107.9,39.2l0.9,2.3c0.5,0.9,1.6,1.2,2.5,0.7c0.7-0.4,1.1-1.3,0.9-2.1
		l-0.9-2.3L107.9,39.2z"/>
	
		<rect id="Rectangle_644" x="0.1" y="76.8" transform="matrix(0.9468 -0.3219 0.3219 0.9468 -24.8569 6.4986)" class="st0" width="14.2" height="3.2"/>
	<path id="Path_6183" class="st0" d="M21.8,90.9L9.9,98.6l-1.3-2l3.5-8.7l-6.5,4.1l-1.7-2.7l11.9-7.6l1.3,2l-3.5,8.7l6.5-4.1
		L21.8,90.9z"/>
	<path id="Path_6184" class="st0" d="M30.3,108.1c-2.1,3-6.2,3.7-9.2,1.6c-0.2-0.1-0.4-0.3-0.6-0.4c-3.3-2.4-4-7-1.6-10.3
		s7-4,10.3-1.6c0.1,0.1,0.2,0.1,0.2,0.2c2,1.5,3.1,3.9,2.8,6.4l-3.1-0.5c0.1-1.4-0.6-2.7-1.7-3.4c-1.7-1.4-4.3-1.2-5.7,0.5
		c-0.1,0.1-0.1,0.1-0.2,0.2c-1.5,1.9-1.2,4.3,0.9,6c1.1,1.1,2.8,1.3,4.2,0.5l-3-2.3l1.7-2.2l5.6,4.4L30.3,108.1z"/>
	<path id="Path_6185" class="st0" d="M38.9,113.9l-1.4-0.5l-1.6,4.4l-3-1.1l4.8-13.3l5.3,1.9c2.5,0.9,3.8,3.7,2.9,6.2c0,0,0,0,0,0
		c-0.6,1.6-2.1,2.8-3.8,3l1.1,5.9l-3.3-1.2L38.9,113.9z M38.4,110.7l2.3,0.8c1,0.2,2-0.4,2.2-1.4c0.2-0.8-0.2-1.7-1-2.1l-2.3-0.8
		L38.4,110.7z"/>
	<path id="Path_6186" class="st0" d="M58.6,119.8l-5.3-0.2l-0.8,2.2l-3.5-0.1l5.3-14l4.1,0.2l4.3,14.3l-3.5-0.1L58.6,119.8z
		 M57.8,116.7l-1.5-5.3l-1.8,5.1L57.8,116.7z"/>
	
		<rect id="Rectangle_645" x="67.3" y="106.7" transform="matrix(0.98 -0.1988 0.1988 0.98 -21.2477 15.9733)" class="st0" width="3.2" height="14.1"/>
	<path id="Path_6187" class="st0" d="M83.2,100.9l6.1,12.8l-2.2,1l-8.2-4.6l3.3,6.9l-2.9,1.4l-6.1-12.8l2.2-1l8.2,4.6l-3.3-6.9
		L83.2,100.9z"/>
	<path id="Path_6188" class="st0" d="M100.2,100.9l2.1,2.3l-6.6,5.9l-9.4-10.5l6.6-5.9l2.1,2.3l-4.1,3.7l1.6,1.7l3.8-3.4l2.1,2.3
		l-3.8,3.4l1.7,1.9L100.2,100.9z"/>
	<path id="Path_6189" class="st0" d="M107.6,83.2c3.3,1.9,4.5,6,2.6,9.3c0,0.1-0.1,0.1-0.1,0.2l-2.9,4.8l-12.1-7.3l2.9-4.8
		c1.9-3.2,6.1-4.3,9.4-2.4C107.5,83.1,107.6,83.2,107.6,83.2 M106,85.9c-1.6-1.2-3.9-0.8-5.1,0.8c-0.1,0.1-0.2,0.2-0.2,0.4l-1.3,2.1
		l6.8,4.1l1.3-2.1c1.1-1.7,0.6-3.9-1.1-5C106.3,86,106.2,85.9,106,85.9"/>
	<path id="Path_6190" class="st0" d="M113.2,77l-0.4,1.3l3.6,1l-0.3,1.2l-3.6-1l-0.4,1.3l-1.2-0.3l1.1-3.9L113.2,77z M113.5,71.1
		l4.7,1.3l-0.3,1.2l-2.7-0.7l1.6,1.7l0,0.1l-2.2,0.7l2.7,0.7l-0.3,1.2l-4.7-1.3l0.3-1.2l2.3-0.7l-1.6-1.8L113.5,71.1z"/>
</g>
</svg>
