<?xml version="1.0" encoding="utf-8"?>
<!-- Generator: Adobe Illustrator 28.0.0, SVG Export Plug-In . SVG Version: 6.00 Build 0)  -->
<svg version="1.1" id="dots" xmlns="http://www.w3.org/2000/svg" xmlns:xlink="http://www.w3.org/1999/xlink" x="0px" y="0px"
	 viewBox="0 0 3.5 67.5" style="enable-background:new 0 0 3.5 67.5;" xml:space="preserve">
<style type="text/css">
	.st0{fill:#C15232;}
</style>
<g>
	<path class="st0" d="M1.8,3.5C2.2,3.5,2.7,3.3,3,3c0.1-0.1,0.2-0.2,0.2-0.3c0.1-0.1,0.1-0.2,0.2-0.3c0-0.1,0.1-0.2,0.1-0.3
		c0-0.1,0-0.2,0-0.3c0-0.1,0-0.2,0-0.3c0-0.1-0.1-0.2-0.1-0.3c0-0.1-0.1-0.2-0.2-0.3C3.1,0.7,3.1,0.6,3,0.5c-0.6-0.6-1.8-0.6-2.5,0
		C0.2,0.8,0,1.3,0,1.7C0,2.2,0.2,2.6,0.5,3C0.8,3.3,1.3,3.5,1.8,3.5z"/>
	<path class="st0" d="M1.8,51.2c-1,0-1.8,0.8-1.8,1.8c0,1,0.8,1.8,1.8,1.8c1,0,1.8-0.8,1.8-1.8C3.5,52,2.7,51.2,1.8,51.2z"/>
	<path class="st0" d="M1.8,25.6c-1,0-1.8,0.8-1.8,1.8c0,1,0.8,1.7,1.8,1.7c1,0,1.8-0.8,1.8-1.7C3.5,26.4,2.7,25.6,1.8,25.6z"/>
	<path class="st0" d="M1.8,38.4c-1,0-1.8,0.8-1.8,1.8c0,1,0.8,1.8,1.8,1.8c1,0,1.8-0.8,1.8-1.8C3.5,39.2,2.7,38.4,1.8,38.4z"/>
	<path class="st0" d="M1.8,12.8c-1,0-1.8,0.8-1.8,1.8c0,1,0.8,1.8,1.8,1.8c1,0,1.8-0.8,1.8-1.8C3.5,13.6,2.7,12.8,1.8,12.8z"/>
	<path class="st0" d="M3.4,65.1C3.4,65.1,3.4,65.1,3.4,65.1C3.4,65,3.3,65,3.4,65.1c-0.1-0.1-0.1-0.2-0.2-0.3c0,0,0,0,0,0
		c0,0,0,0,0,0c-0.1-0.1-0.1-0.2-0.2-0.2c0,0,0,0,0,0c-0.1-0.1-0.2-0.2-0.3-0.2c0,0,0,0,0,0c-0.1-0.1-0.2-0.1-0.3-0.1c0,0,0,0,0,0
		C2.1,64,2,64,1.9,64c0,0,0,0,0,0c0,0-0.1,0-0.1,0c-1,0-1.8,0.8-1.8,1.8c0,0.2,0,0.3,0.1,0.5c0,0.1,0,0.1,0.1,0.2
		c0,0.1,0.1,0.2,0.2,0.3c0.1,0.2,0.3,0.4,0.5,0.5c0,0,0,0,0,0c0.1,0.1,0.2,0.1,0.3,0.1c0.1,0,0.1,0,0.2,0.1c0.1,0,0.1,0,0.2,0
		c0.1,0,0.2,0,0.3,0c0.1,0,0.2,0,0.4,0c0,0,0,0,0,0C2.5,67.4,2.8,67.2,3,67c0,0,0-0.1,0.1-0.1c0.1-0.1,0.2-0.3,0.3-0.5c0,0,0,0,0,0
		c0.1-0.2,0.1-0.4,0.1-0.7c0-0.1,0-0.2,0-0.3C3.4,65.3,3.4,65.2,3.4,65.1z"/>
</g>
</svg>
