<?xml version="1.0" encoding="utf-8"?>
<!-- Generator: Adobe Illustrator 28.1.0, SVG Export Plug-In . SVG Version: 6.00 Build 0)  -->
<svg version="1.1" id="notch-quality" xmlns="http://www.w3.org/2000/svg" xmlns:xlink="http://www.w3.org/1999/xlink" x="0px"
	 y="0px" viewBox="0 0 268.5 268.5" style="enable-background:new 0 0 268.5 268.5;" xml:space="preserve">
<style type="text/css">
	.st0{fill:#004356;}
</style>
<g id="Group_2274">
	<path id="Path_6844" class="st0" d="M134.3,0C60.2,0,0,60.2,0,134.3s60.2,134.3,134.3,134.3s134.3-60.2,134.3-134.3
		S208.3,0,134.3,0 M134.3,265.2c-72.2,0-131-58.8-131-131s58.8-131,131-131s131,58.8,131,131S206.5,265.2,134.3,265.2"/>
	<path id="Path_6845" class="st0" d="M203.6,82h4.1c-28.8-40.5-85.1-50-125.6-21.2c-8.2,5.8-15.4,13-21.2,21.2h4.1
		C93.8,43.7,148.2,36,186.5,64.9C193,69.7,198.7,75.5,203.6,82"/>
	<path id="Path_6846" class="st0" d="M212.4,179.2h-3.8c-24.8,41-78.2,54.2-119.2,29.4c-12-7.3-22.1-17.4-29.4-29.4h-3.8
		c24.8,43.2,79.9,58,123.1,33.2C193,204.5,204.5,193,212.4,179.2"/>
	<path id="Path_6847" class="st0" d="M177.5,104.3c0,2.8,2.3,5,5,5c2.8,0,5-2.3,5-5c0-2.8-2.3-5-5-5
		C179.8,99.2,177.5,101.4,177.5,104.3C177.5,104.2,177.5,104.2,177.5,104.3"/>
	<path id="Path_6848" class="st0" d="M245.5,131.2c-1.9,3.7-9.4,13.1-16.1,16.2l13.5-33.5c-1.3,0.8-7.1,1-8.9,0.9l-7,17.7
		c-2.5,4.5-6.5,10.7-10.4,10.7c-0.9,0.1-1.8-0.5-1.9-1.4c0-0.2,0-0.3,0-0.5c0-1,0.3-2,0.7-2.9l9.8-24.5c-1.4,0.8-10.1,1.8-12.7,2.2
		c1.1,0.6,1.7,1.7,1.6,2.9c0,1.1-0.3,2.1-0.7,3.1l-4.3,10.8c-2.9,4.9-7.6,10.4-13.7,10.4c-1.3,0.2-2.5-0.7-2.7-2.1
		c0-0.2,0-0.3,0-0.5c0-0.8,0.2-1.5,0.5-2.2l8.3-20.6h6.8l1.2-3.3h-6.7l7.5-18.6c-1.4,0.8-10.1,1.8-12.7,2.2c1.1,0.6,1.7,1.7,1.6,2.9
		c0,1.1-0.3,2.1-0.7,3.1l-4.2,10.4h-5l-1.2,3.3h4.9l-6.2,15.4c-2.7,4.4-7.2,10-11,10c-0.9,0.1-1.8-0.5-1.9-1.4c0-0.2,0-0.3,0-0.5
		c0-1,0.3-2,0.7-2.9l9.8-24.5c-1.4,0.8-9.9,2.2-12.7,2.2c1.1,0.6,1.7,1.7,1.6,2.9c0,1.1-0.3,2.1-0.7,3.1l-4.3,10.8
		c-2.6,4.4-6.9,10.3-11.1,10.3c-0.9,0.1-1.8-0.5-1.9-1.4c0-0.2,0-0.3,0-0.5c0-1,0.3-2,0.7-2.9l17.2-42.5c-1.4,0.9-10.3,2.2-12.8,2.2
		c1.1,0.5,1.8,1.6,1.8,2.8c0,1.1-0.3,2.1-0.7,3.1l-12.5,31.1c-2.6,3.9-6.1,8-9.3,8c-0.9,0.1-1.8-0.5-1.9-1.4c0-0.2,0-0.3,0-0.5
		c0-1,0.3-2,0.7-2.9l9.8-24.5c-1.4,0.8-7.3,1-8.4,1c-0.3,1.6-1.2,4.6-1.5,6.4l-0.5,0.2c0.1-0.4,0.1-0.9,0.1-1.3
		c0-3.7-1.4-6.6-5.5-6.6c-8.8,0-18.6,13.1-21,23.4c-2.4,3.3-5.3,6.2-8,6.2c-0.9,0.1-1.8-0.5-1.9-1.4c0-0.2,0-0.3,0-0.5
		c0-1,0.3-2,0.7-2.9l9.8-24.5l-8.9,0.9L96.4,132c-2.5,4.6-6.6,11.2-10.6,11.2c-0.9,0.1-1.8-0.5-1.9-1.4c0-0.2,0-0.3,0-0.5
		c0-1,0.3-2,0.7-2.9l9.8-24.5c-1.4,0.8-9.9,2.2-12.7,2.2c1.1,0.6,1.7,1.7,1.6,2.9c0,1.1-0.3,2.1-0.7,3.1l-5.3,13.5
		c-1.2,2.8-2.1,5.4-2.1,7.6c0,2.9,1.7,6,6.2,6c4.4,0,8.2-2.8,11.5-6.6v0.7c0,2.9,1.7,6,6.2,6c4.4,0,8.5-2.8,11.9-6.6
		c0.3,3.9,2.5,6.6,7.3,6.6c4.7,0,8.5-3.3,11.7-9c-0.3,1-0.5,2-0.5,3c0,2.9,1.3,6,5.8,6c4.2,0,8.1-2.5,11.4-6c0,0,0,0.1,0,0.1
		c0,2.9,1.7,6,6.2,6c4.6,0,8.8-2.8,12.4-6.7c0,0.2,0,0.5,0,0.7c0,2.9,1.7,6,6.2,6c4.8,0,9.3-3.4,13.1-7.7v0c0,4.8,3.2,7.7,8.2,7.7
		c4.9,0,9.4-2.8,13.2-6.8c0,0.3,0,0.5,0,0.8c0,2.9,1.7,6,6.2,6c4.3,0,7.6-2.6,10.6-6.2l-2.6,6.5l-0.8,2c-12,1-23.3,6.3-23.3,14.3
		c0,2.8,1.9,6.3,8.5,6.3c13.1,0,19.9-12.6,22.3-18.5l0.7-1.7c9.4-2.5,16.9-12.4,20.6-19.1L245.5,131.2z M134.4,126.8
		c-3.4,6.8-8.1,16.5-12.3,16.5c-1.5,0-2.1-1.1-2.1-3c0-6.6,8.4-22.3,13.5-22.3c1.4,0,1.9,1.2,1.9,3
		C135.2,122.9,134.9,124.9,134.4,126.8 M204.4,168.4c-1.9,0-2.8-1-2.8-2.3c0-4.8,9.2-10.4,16.4-11.5
		C215.2,160.3,210.5,168.4,204.4,168.4"/>
	<path id="Path_6849" class="st0" d="M68.4,172c0.9-4.3,4.7-10.5,6.3-11.4c-1.1,0.3-2.3,0.4-3.4,0.4c-7.6,0-13.3-5.8-19.7-11.1
		c15.8-9.9,27.6-29.2,27.6-43c0-10.1-6.3-17.1-18.9-17.1c-19.9,0-35.2,17.4-35.2,31.7c0,8.5,5.3,11.8,10.8,11.8
		c5.8,0,11.7-3.7,11.7-9.3c0-1.7-0.5-3.3-1.6-4.7c0,3.3-3.3,5.6-6.4,5.6c-2.3,0-4.5-1.4-4.5-5.2c0-8.7,10.8-25.6,23.9-25.6
		c6.8,0,9.7,4.7,9.7,11.6c0,12.4-8.9,31.5-21.3,40.9c-4.4-3.1-9.3-5.5-15.5-5.5c-8,0-12.5,4-12.5,8.4c0,4.1,3.7,7,11.5,7
		c5.1-0.1,10.2-1.2,14.9-3.3C52.5,160.8,57.7,172,68.4,172 M32.7,151.9c-4,0-6.8-1.2-6.8-3.3c0-2,2.6-3.3,6.3-3.3
		c3.9,0.1,7.6,1.6,10.4,4.3C39.5,151,36.1,151.8,32.7,151.9"/>
	<path id="Path_6850" class="st0" d="M102.6,200.1c-0.1,0.7,0.1,1.4,0.4,2c0.4,0.4,1,0.7,1.5,0.6c0.6,0,1.2-0.2,1.5-0.6
		c0.4-0.6,0.5-1.4,0.4-2.1h-1.1c0,0.9,0,1.2-0.2,1.4c-0.2,0.2-0.4,0.3-0.6,0.3c-0.2,0-0.5-0.1-0.6-0.3c-0.2-0.4-0.3-0.8-0.2-1.2
		v-2.8c-0.1-0.4,0-0.8,0.2-1.2c0.1-0.2,0.4-0.3,0.6-0.3c0.3,0,0.5,0.1,0.6,0.3c0.2,0.2,0.2,0.5,0.2,1.4h1.1c0.1-0.7-0.1-1.5-0.4-2.1
		c-0.8-0.8-2.2-0.9-3,0c0,0,0,0,0,0c-0.4,0.6-0.5,1.3-0.4,2V200.1z"/>
	<path id="Path_6851" class="st0" d="M111.6,202.7V200c0.6-1.6,1.1-3.4,1.6-5H112c-0.3,1.2-0.6,2.5-0.9,3.6h0
		c-0.3-1.1-0.7-2.4-1-3.6h-1.2c0.5,1.6,1,3.3,1.6,5v2.7L111.6,202.7z"/>
	<path id="Path_6852" class="st0" d="M115.9,195v7.7h1.1v-2.8h0.6c1,0.2,2-0.5,2.2-1.6c0-0.2,0-0.4,0-0.6v-0.6
		c0-1.6-0.7-2.2-2.2-2.2L115.9,195z M118.7,197.2v0.5c0,1-0.3,1.3-1.1,1.3H117v-3h0.5C118.4,196,118.7,196.3,118.7,197.2"/>
	<path id="Path_6853" class="st0" d="M124.4,195h-1.7v7.7h1.1v-3h0.7c0.3,1,0.7,2,1,3h1.2c-0.4-1.1-0.8-2.1-1.1-3.2
		c0.7-0.3,1-0.9,1-2v-0.4C126.6,195.6,125.9,195,124.4,195 M125.5,197.5c0,0.9-0.3,1.3-1.1,1.3h-0.6V196h0.6c0.8,0,1.1,0.3,1.1,1.2
		V197.5z"/>
	<path id="Path_6854" class="st0" d="M132.9,196v-1h-3.3v7.7h3.3v-1h-2.2v-2.4h2v-1h-2V196L132.9,196z"/>
	<path id="Path_6855" class="st0" d="M137.4,201.8c-0.2,0-0.4-0.1-0.6-0.3c-0.2-0.2-0.2-0.5-0.2-1.2h-1.1c-0.1,0.7,0.1,1.3,0.5,1.9
		c0.4,0.4,0.9,0.6,1.4,0.5c1,0.1,1.8-0.6,1.9-1.6c0-0.1,0-0.2,0-0.3v-0.2c0.1-0.9-0.5-1.8-1.3-2.1l-0.5-0.3
		c-0.7-0.4-0.9-0.7-0.9-1.3v-0.1c0-0.6,0.3-0.9,0.8-0.9c0.2,0,0.5,0.1,0.6,0.3c0.1,0.2,0.2,0.5,0.2,1.1h1.1c0.1-0.6-0.1-1.2-0.4-1.7
		c-0.4-0.4-0.9-0.6-1.5-0.6c-1-0.1-1.8,0.6-1.9,1.6c0,0.1,0,0.2,0,0.3v0.2c-0.1,0.9,0.5,1.8,1.3,2.1l0.5,0.3
		c0.8,0.4,0.9,0.7,0.9,1.4v0.1C138.3,201.5,137.9,201.8,137.4,201.8"/>
	<path id="Path_6856" class="st0" d="M144,201.8c-0.2,0-0.4-0.1-0.6-0.3c-0.2-0.2-0.2-0.5-0.2-1.2h-1.1c-0.1,0.7,0.1,1.3,0.5,1.9
		c0.4,0.4,0.9,0.6,1.4,0.5c1,0.1,1.8-0.6,1.9-1.6c0-0.1,0-0.2,0-0.3v-0.2c0.1-0.9-0.5-1.8-1.3-2.1l-0.5-0.3
		c-0.7-0.4-0.9-0.7-0.9-1.3v-0.1c0-0.6,0.3-0.9,0.8-0.9c0.2,0,0.5,0.1,0.6,0.3c0.1,0.2,0.2,0.5,0.2,1.1h1.1c0.1-0.6-0.1-1.2-0.4-1.7
		c-0.4-0.4-0.9-0.6-1.5-0.6c-1-0.1-1.8,0.6-1.9,1.6c0,0.1,0,0.2,0,0.3v0.2c-0.1,0.9,0.5,1.8,1.3,2.1l0.5,0.3
		c0.8,0.4,0.9,0.7,0.9,1.4v0.1C144.8,201.5,144.4,201.8,144,201.8"/>
	<path id="Path_6857" class="st0" d="M149.8,201.3h-1l-0.3,2.5h0.8L149.8,201.3z"/>
	<path id="Path_6858" class="st0" d="M155.8,196h1.4v6.7h1.1V196h1.3v-1h-3.8V196z"/>
	<path id="Path_6859" class="st0" d="M163.2,202.7l0.9-3h0c0.3,0.8,0.6,2,0.9,3h1.2c-0.5-1.4-0.9-2.7-1.4-4c0.4-1.2,0.9-2.4,1.3-3.7
		H165c-0.3,1-0.6,2-0.9,2.9h0c-0.3-0.9-0.6-1.9-0.9-2.9H162c0.4,1.3,0.9,2.5,1.4,3.7c-0.4,1.2-0.9,2.6-1.4,4H163.2z"/>
	<path id="Path_6860" class="st0" d="M82.9,163.1c0.2-0.3,0.6-0.4,0.9-0.4c0.3,0,0.7,0.1,0.9,0.4c0.2,0.3,0.3,0.8,0.3,2.4h2.6
		c0-2.1-0.2-3.1-0.8-3.9c-0.7-0.8-1.8-1.3-3-1.2c-1.1-0.1-2.2,0.4-3,1.2c-0.7,1.1-1,2.4-0.8,3.7v4.5c0,1.8,0.2,2.9,0.8,3.7
		c1.7,1.6,4.3,1.6,6,0c0.7-1.1,1-2.3,0.8-3.6v-2.9h-3.9v2.1h1.3v1.3c0.1,0.5,0,1-0.3,1.5c-0.4,0.5-1.2,0.6-1.8,0.2
		c-0.1-0.1-0.1-0.1-0.2-0.2c-0.3-0.5-0.4-1.1-0.3-1.7v-5.4C82.5,164.2,82.6,163.7,82.9,163.1"/>
	<path id="Path_6861" class="st0" d="M91.7,160.5v9.5c-0.1,1.2,0.2,2.4,0.8,3.4c0.7,0.8,1.8,1.3,3,1.2c1.1,0.1,2.2-0.3,2.9-1.2
		c0.7-1,1-2.2,0.8-3.4v-9.5h-2.6v9.9c0.1,0.5,0,1-0.3,1.4c-0.2,0.3-0.5,0.4-0.9,0.4c-0.4,0-0.7-0.1-0.9-0.4
		c-0.2-0.4-0.3-0.9-0.3-1.4v-9.9L91.7,160.5z"/>
	<path id="Path_6862" class="st0" d="M105.1,160.5c-0.8,4.5-1.5,9.2-2.1,13.9h2.7c0.1-1,0.2-2,0.3-3h2.4c0.1,1,0.2,1.9,0.3,3h2.7
		c-0.6-4.8-1.3-9.5-2.1-13.9H105.1z M106.2,169.3l0.2-1.4c0.1-1.4,0.4-3.3,0.6-4.9h0.2c0.3,1.6,0.5,3.5,0.7,4.9l0.2,1.5L106.2,169.3
		z"/>
	<path id="Path_6863" class="st0" d="M122.7,165.4v-1c0-3-1.4-3.9-4.1-3.9h-3.3v13.9h2.6v-5.2h1c0.5,1.7,1,3.4,1.5,5.2h2.8
		c-0.6-1.9-1.2-3.8-1.9-5.6C122.2,168.3,122.7,167.3,122.7,165.4 M120.1,165.3c0,1.4-0.4,1.8-1.5,1.8h-0.7v-4.4h0.7
		c1.1,0,1.5,0.4,1.5,1.8V165.3z"/>
	<path id="Path_6864" class="st0" d="M128.4,160.5c-0.8,4.5-1.5,9.2-2.1,13.9h2.7c0.1-1,0.2-2,0.3-3h2.4c0.1,1,0.2,1.9,0.3,3h2.7
		c-0.6-4.8-1.3-9.5-2.1-13.9H128.4z M129.5,169.3l0.2-1.4c0.1-1.4,0.4-3.3,0.6-4.9h0.2c0.3,1.6,0.5,3.5,0.7,4.9l0.2,1.5L129.5,169.3
		z"/>
	<path id="Path_6865" class="st0" d="M142.7,165.7l-2-5.2h-2.2v13.9h2.4v-4.9c0-1,0-2.4,0-3.5h0.1c0.3,0.9,0.7,2.2,1.1,3.1l2,5.3
		h2.2v-13.9h-2.4v4.8c0,1,0,2.4,0.1,3.5h-0.1C143.5,167.9,143,166.6,142.7,165.7"/>
	<path id="Path_6866" class="st0" d="M150.1,162.8h2.3v11.7h2.6v-11.7h2.3v-2.2h-7.2L150.1,162.8z"/>
	<path id="Path_6867" class="st0" d="M161.2,174.5h6.2v-2.2h-3.6v-3.7h3.3v-2.2h-3.3v-3.5h3.6v-2.2h-6.2V174.5z"/>
	<path id="Path_6868" class="st0" d="M177.6,162.8v-2.2h-6.2v13.9h6.2v-2.2H174v-3.7h3.3v-2.2H174v-3.5L177.6,162.8z"/>
	<path id="Path_6869" class="st0" d="M188.3,173.3c0.7-1.1,1-2.4,0.9-3.7v-4.2c0.1-1.3-0.2-2.6-0.9-3.7c-0.8-0.8-2-1.3-3.2-1.1h-3.5
		v13.9h3.5C186.3,174.6,187.5,174.2,188.3,173.3 M186.6,170.1c0.1,0.6-0.1,1.2-0.4,1.7c-0.3,0.3-0.8,0.5-1.2,0.4h-0.8v-9.6h0.8
		c0.4-0.1,0.9,0.1,1.2,0.4c0.3,0.5,0.4,1.1,0.4,1.7V170.1z"/>
	<path id="Path_6870" class="st0" d="M50.3,73.7L46.7,71c-0.6-0.5-1.6-1.2-2.3-1.7l0,0c0.9,0.2,2.7,0.4,4.1,0.6l4.3,0.5l1.8-2.3
		l-10.9-8.2l-1.9,2.6l3.5,2.6c0.6,0.5,1.6,1.2,2.4,1.7l0,0c-0.9-0.2-2.8-0.5-4.1-0.6l-4.2-0.4L37.4,68l10.9,8.2L50.3,73.7z"/>
	<path id="Path_6871" class="st0" d="M53.1,61.3c1,1.2,2.4,1.9,3.8,2c3.1-0.3,5.6-2.8,5.9-5.9c-0.2-1.5-0.9-2.9-2.1-3.8l-1.9-1.9
		c-1-1.2-2.4-1.9-3.8-2c-3.1,0.3-5.6,2.8-5.9,5.9c0.2,1.5,0.9,2.9,2.1,3.8L53.1,61.3z M53.1,53.7c0.4-0.4,0.9-0.7,1.5-0.6
		c0.6,0.1,1.1,0.4,1.5,0.8l2.5,2.5c0.5,0.4,0.8,0.9,0.9,1.5c0,1.2-1,2.1-2.1,2.1c-0.6-0.1-1.1-0.4-1.5-0.8l-2.5-2.5
		c-0.5-0.4-0.8-0.9-0.9-1.5C52.5,54.6,52.7,54.1,53.1,53.7"/>
	<path id="Path_6872" class="st0" d="M62.4,45.3l6.7,8.5l2.7-2.1l-6.7-8.5l2.3-1.8l-1.8-2.3l-7.3,5.7l1.8,2.3L62.4,45.3z"/>
	<path id="Path_6873" class="st0" d="M73.6,43.7c0.7,1.4,1.9,2.4,3.4,2.8c1.4,0.3,2.9,0,4.1-0.9c1.1-0.6,1.9-1.5,2.4-2.6
		c0.5-1.2,0.4-2.6-0.1-3.8l-3.1,0.9c0.2,0.5,0.2,1.1,0.1,1.7c-0.1,0.5-0.5,0.9-0.9,1.1c-0.4,0.3-0.9,0.4-1.4,0.3
		c-0.6-0.2-1-0.6-1.3-1.1L74.8,39c-0.3-0.5-0.5-1.1-0.4-1.6c0.1-0.5,0.5-0.9,0.9-1.2c0.4-0.3,0.9-0.4,1.4-0.3
		c0.6,0.2,1.1,0.5,1.4,0.9l2.3-2.3c-0.8-1.1-2-1.7-3.3-1.9c-1.2-0.1-2.4,0.3-3.4,0.9c-1.3,0.7-2.2,1.8-2.6,3.2
		c-0.3,1.5,0,3.1,0.9,4.3L73.6,43.7z"/>
	<path id="Path_6874" class="st0" d="M91.9,39.8l-2.1-4.9l3-1.3l2.1,4.9l3.2-1.4l-5.4-12.6l-3.2,1.4l2.1,4.9l-3,1.3l-2.1-4.9
		l-3.2,1.4l5.4,12.6L91.9,39.8z"/>
	<path id="Path_6875" class="st0" d="M113.2,32.9c0-1.1-0.1-2.6-0.1-3.7l-0.1-4.6l0.1,0l1.6,4.3c0.4,1.2,0.9,2.4,1.3,3.5l3.8-0.7
		c0.2-4.4,0.4-9.4,0.5-14l-3.6,0.7c0.1,1.8,0.1,4.1,0.2,5.8c0,1,0.1,2.3,0.1,3.4l-0.2,0c-0.4-1-0.9-2.4-1.3-3.4
		c-0.6-1.7-1.4-3.6-2-5.2l-3.1,0.6c0,1.6,0,3.7,0.1,5.6c0,1.1,0,2.5,0.1,3.6l-0.2,0c-0.4-1-0.8-2.2-1.2-3.2c-0.6-1.5-1.3-3.6-2-5.4
		l-3.6,0.7c1.8,4.3,3.8,8.8,5.7,12.8L113.2,32.9z"/>
	<path id="Path_6876" class="st0" d="M125.4,25.5c-0.1,1.5,0.4,3,1.4,4.1c2.5,1.9,6,1.8,8.3-0.3c0.9-1.2,1.3-2.7,1.1-4.2l-0.1-2.6
		c0.1-1.5-0.4-3-1.4-4.1c-2.5-1.9-6-1.8-8.3,0.3c-0.9,1.2-1.3,2.7-1.1,4.2L125.4,25.5z M129.2,20.6c0.8-0.8,2.1-0.9,3-0.1
		c0.4,0.5,0.5,1.1,0.5,1.6l0.1,3.5c0.1,0.6-0.1,1.2-0.4,1.7c-0.8,0.8-2.1,0.9-3,0.1c-0.4-0.5-0.5-1.1-0.5-1.6l-0.1-3.5
		C128.7,21.7,128.8,21.1,129.2,20.6"/>
	<path id="Path_6877" class="st0" d="M144.8,31.4c1.5,0.3,3.1-0.1,4.3-1.1c1.1-1.1,1.7-2.5,1.7-4l0.3-2.6c0.3-1.5,0-3-0.8-4.3
		c-2.2-2.2-5.7-2.6-8.3-0.8c-1.1,1.1-1.7,2.5-1.7,4l-0.3,2.6c-0.3,1.5,0,3,0.8,4.3C141.8,30.7,143.2,31.4,144.8,31.4 M143.4,26
		l0.3-3.5c0-0.6,0.2-1.2,0.6-1.6c0.9-0.7,2.2-0.6,3,0.3c0.3,0.5,0.4,1.1,0.3,1.7l-0.3,3.5c0,0.6-0.2,1.2-0.6,1.6
		c-0.9,0.7-2.2,0.6-3-0.3C143.3,27.2,143.2,26.6,143.4,26"/>
	<path id="Path_6878" class="st0" d="M162.6,33.2c1.2-0.9,2-2.2,2.2-3.7l0.6-2.7c0.5-1.4,0.4-3-0.3-4.3c-0.9-1.2-2.3-2-3.8-2.2
		l-4.8-1.1l-3.2,13.3l4.8,1.1C159.6,34,161.2,33.9,162.6,33.2 M159.3,22.5l1.3,0.3c0.6,0.1,1.2,0.4,1.5,0.9c0.2,0.6,0.3,1.2,0.1,1.8
		l-0.8,3.5c-0.1,0.6-0.4,1.2-0.9,1.6c-0.5,0.3-1.2,0.4-1.7,0.2l-1.3-0.3L159.3,22.5z"/>
	<path id="Path_6879" class="st0" d="M174.5,34.8l2.5-3.9l0.1,0l-1,4.5c-0.3,1.2-0.6,2.5-0.8,3.7l3.6,1.5c2.6-3.5,5.5-7.7,8.1-11.4
		l-3.4-1.4c-0.9,1.6-2.2,3.5-3,4.9c-0.6,0.9-1.2,1.9-1.8,2.9l-0.1-0.1c0.3-1,0.6-2.5,0.8-3.5c0.4-1.8,0.8-3.7,1.2-5.4l-2.9-1.2
		c-0.9,1.4-2,3.1-3,4.7c-0.6,0.9-1.3,2.1-1.9,3l-0.1-0.1c0.3-1,0.5-2.2,0.7-3.3c0.4-1.6,0.9-3.7,1.3-5.6l-3.4-1.4
		c-0.8,4.6-1.6,9.4-2.3,13.8l3.6,1.5C173.1,37.1,173.9,35.8,174.5,34.8"/>
	<path id="Path_6880" class="st0" d="M185.6,42.7c1,3,4,4.8,7.1,4.4c1.4-0.5,2.6-1.5,3.3-2.9l1.4-2.3c0.9-1.2,1.3-2.7,1.1-4.2
		c-1-3-4-4.8-7.1-4.4c-1.4,0.5-2.6,1.5-3.3,2.9l-1.4,2.3C185.8,39.7,185.4,41.2,185.6,42.7 M189.4,40.7l1.8-3c0.3-0.5,0.7-1,1.3-1.2
		c1.1-0.2,2.3,0.5,2.6,1.6c0.1,0.6-0.1,1.2-0.5,1.7l-1.8,3c-0.3,0.5-0.7,1-1.3,1.2c-1.1,0.2-2.3-0.5-2.6-1.6
		C188.9,41.7,189.1,41.1,189.4,40.7"/>
	<path id="Path_6881" class="st0" d="M198.4,53l2.9-3.6l1.1,0.9c-0.5,1.5-1.1,3.2-1.5,4.7l2.9,2.3c0.5-1.9,1.1-3.7,1.5-5.6
		c1.4,0.2,2.8-0.4,3.7-1.6l0.4-0.5c2-2.4,1.1-4.4-1.1-6.2l-3.9-3.2l-8.6,10.6L198.4,53z M205.3,44.5l1,0.8c0.7,0.4,0.9,1.2,0.5,1.9
		c-0.1,0.1-0.2,0.2-0.3,0.3l-0.3,0.4c-0.4,0.7-1.3,0.8-1.9,0.4c-0.1-0.1-0.2-0.1-0.3-0.2l-1-0.8L205.3,44.5z"/>
	<path id="Path_6882" class="st0" d="M208.2,61.8l2.4-2.2l2.1-0.3c-0.6,1.7-1.3,3.7-1.9,5.2l2.7,2.8c0.9-2.5,1.9-5.4,2.8-8.1l7-1.4
		l-2.7-2.8l-6.8,1.6l4.4-4.2l-2.4-2.5l-9.9,9.4L208.2,61.8z"/>
	<path id="Path_6883" class="st0" d="M222.5,63.1c-1.7,1.3-1.9,3-1.1,5.3l0.2,0.7c0.6,1.5,0.7,2.2,0,2.6l-0.1,0.1
		c-0.5,0.4-1.2,0.2-1.8-0.6c-0.3-0.3-0.4-0.7-0.5-1.1c-0.1-0.6,0.1-1.1,0.4-1.6l-2.5-1.7c-0.8,0.9-1.1,2.2-0.9,3.4
		c0.2,1,0.6,2,1.3,2.8c1.8,2.4,4.1,2.9,6.2,1.4l0.2-0.1c1.9-1.4,1.9-2.9,1-5.4l-0.3-0.8c-0.5-1.5-0.5-2,0-2.4l0,0
		c0.5-0.4,1.1-0.2,1.7,0.5c0.3,0.4,0.5,0.8,0.5,1.3c0,0.5-0.2,0.9-0.4,1.3l2.5,1.7c0.7-0.9,1-2,0.9-3.1c-0.1-1-0.5-2-1.2-2.8
		c-1.8-2.4-4-2.9-6-1.4L222.5,63.1z"/>
	<path id="Path_6884" class="st0" d="M37.6,191.6c-0.5,0.2-1.1,0.2-1.7,0.1c-1-0.4-1.5-1.4-1.3-2.4c0.2-0.6,0.6-1,1.1-1.3l3.3-1.9
		c0.5-0.3,1.1-0.4,1.7-0.3c0.5,0.1,0.9,0.5,1.1,0.9c0.3,0.4,0.3,0.9,0.2,1.4c-0.2,0.6-0.5,1-0.9,1.4l2.2,2.3c1.1-0.8,1.8-1.9,2-3.2
		c0.1-1.2-0.2-2.4-0.8-3.4c-0.6-1.3-1.8-2.3-3.1-2.7c-1.5-0.3-3.1-0.1-4.4,0.8l-2.5,1.4c-1.4,0.7-2.4,1.9-2.9,3.3
		c-0.3,1.4,0,2.9,0.7,4.1c0.5,1.1,1.4,1.9,2.5,2.5c1.2,0.5,2.6,0.5,3.8,0L37.6,191.6z"/>
	<path id="Path_6885" class="st0" d="M52.6,198l-4.3,3.2l-2-2.6l4.3-3.2l-2.1-2.8l-10.9,8.2l2.1,2.8l4.2-3.2l2,2.6l-4.2,3.2l2.1,2.8
		l10.9-8.2L52.6,198z"/>
	<path id="Path_6886" class="st0" d="M58.7,205c-3.9,2.4-7.9,4.9-11.8,7.5l2.5,2.5c0.7-0.5,1.4-1,2.1-1.5l2.2,2.3
		c-0.5,0.7-1,1.4-1.5,2.1l2.5,2.5c2.6-3.9,5.2-7.8,7.6-11.7L58.7,205z M55.8,212.9c-0.1,0.2-0.3,0.4-0.5,0.6l-1.6-1.6l0.6-0.4
		c1.3-0.9,2.8-1.9,3.9-2.6l0.2,0.2C57.6,210.2,56.7,211.6,55.8,212.9"/>
	<path id="Path_6887" class="st0" d="M71.4,222.7l0.4-0.5c1.9-2.4,1.1-4.4-1.2-6.2l-4-3.1l-8.4,10.8l2.7,2.1l2.8-3.6l1.1,0.9
		c-0.5,1.5-1,3.3-1.5,4.7l2.9,2.3c0.5-1.9,1-3.7,1.4-5.6C69.2,224.5,70.6,223.9,71.4,222.7 M69,220.1l-0.3,0.4
		c-0.4,0.7-1.3,0.9-1.9,0.5c-0.1-0.1-0.2-0.1-0.3-0.2l-1-0.8l2.2-2.8l1,0.8c0.7,0.4,0.9,1.2,0.5,1.9C69.1,219.9,69.1,220,69,220.1"
		/>
	<path id="Path_6888" class="st0" d="M69.5,232.1l3,1.8c0.6-0.7,1.1-1.4,1.7-2l2.7,1.6c-0.3,0.8-0.6,1.6-0.9,2.4l3.1,1.8
		c1.6-4.4,3.1-8.9,4.4-13.3l-4.4-2.7C75.8,225.2,72.6,228.7,69.5,232.1 M79.8,225.8c-0.5,1.3-1,2.9-1.6,4.4
		c-0.1,0.2-0.2,0.5-0.3,0.7l-2-1.2l0.5-0.6c1.1-1.2,2.2-2.5,3.1-3.5L79.8,225.8z"/>
	<path id="Path_6889" class="st0" d="M93.4,229.2c-1.3-0.6-2.8-0.8-4.1-0.3c-1.4,0.6-2.5,1.8-3,3.3l-1.1,2.6c-0.7,1.4-0.8,3-0.3,4.4
		c0.6,1.3,1.7,2.3,3.1,2.8c1.1,0.5,2.3,0.7,3.5,0.5c1.3-0.3,2.4-1.1,3-2.3l-2.5-1.9c-0.3,0.5-0.8,0.9-1.3,1.1
		c-0.5,0.2-1,0.1-1.4-0.1c-0.5-0.2-0.9-0.5-1.1-1c-0.2-0.6-0.1-1.2,0.1-1.7l1.5-3.4c0.2-0.5,0.6-1,1.1-1.3c0.5-0.2,1-0.2,1.5,0.1
		c0.5,0.2,0.8,0.5,1,1c0.2,0.5,0.2,1.1,0.1,1.7l3.2,0.5c0.4-1.3,0.2-2.6-0.4-3.8C95.5,230.4,94.5,229.7,93.4,229.2"/>
	<path id="Path_6890" class="st0" d="M99.9,235.1l2.8,0.8l-3,10.4l3.3,1l3-10.4l2.8,0.8l0.8-2.8l-8.9-2.6L99.9,235.1z"/>
	<path id="Path_6891" class="st0" d="M110.4,249.1l8.1,1.4l0.5-2.8l-4.7-0.8l0.4-2.5l4.5,0.8l0.5-2.8l-4.5-0.8l0.4-2.5l4.7,0.8
		l0.5-2.8l-8.1-1.4L110.4,249.1z"/>
	<path id="Path_6892" class="st0" d="M133.8,242.7l0-0.7c0.2-3.1-1.7-4.2-4.6-4.4l-5-0.3l-0.7,13.7l3.5,0.2l0.2-4.6l1.5,0.1
		c0.5,1.5,1.1,3.2,1.5,4.7l3.7,0.2c-0.7-1.8-1.3-3.6-2.1-5.4C133.1,245.5,133.9,244.2,133.8,242.7 M130.4,242.5
		c0,0.8-0.5,1.4-1.3,1.5c-0.1,0-0.2,0-0.4,0l-1.3-0.1l0.2-3.6l1.3,0.1c0.8-0.1,1.5,0.5,1.5,1.2c0,0.1,0,0.3,0,0.4L130.4,242.5z"/>
	
		<rect id="Rectangle_669" x="144.4" y="237.2" transform="matrix(0.9943 -0.1063 0.1063 0.9943 -25.1091 16.9144)" class="st0" width="3.5" height="13.7"/>
	<path id="Path_6893" class="st0" d="M157.8,235.1l0.9,4.2c0.2,0.8,0.4,2,0.6,2.9l-0.1,0c-0.5-0.7-1.8-2.2-2.7-3.1l-2.9-3.1
		l-2.9,0.6l2.8,13.4l3.1-0.7l-0.9-4.3c-0.2-0.8-0.4-2-0.6-2.8l0.1,0c0.5,0.7,1.7,2.1,2.7,3.1l2.9,3.2l2.9-0.6l-2.8-13.4L157.8,235.1
		z"/>
	<path id="Path_6894" class="st0" d="M176.5,235.5l-5.2,1.9l0.9,2.5l2-0.7c0.3,0.5,0.3,1.1,0.1,1.7c-0.6,1.1-1.9,1.5-3.1,1.1
		c-0.5-0.3-0.8-0.8-1-1.4l-1.2-3.4c-0.2-0.5-0.2-1.1,0-1.7c0.2-0.5,0.7-0.8,1.2-1c0.5-0.2,1-0.2,1.5,0c0.5,0.2,0.9,0.6,1.1,1
		l2.7-1.8c-0.6-1.1-1.6-1.9-2.8-2.3c-1.2-0.3-2.4-0.2-3.5,0.3c-1.4,0.4-2.6,1.3-3.3,2.6c-0.6,1.4-0.6,3,0,4.4l0.9,2.6
		c0.4,1.5,1.3,2.7,2.6,3.5c3,1.1,6.4-0.1,8-2.9c0.5-1.4,0.4-3-0.2-4.4L176.5,235.5z"/>
	<path id="Path_6895" class="st0" d="M188.3,228.4l-0.3-0.6c-1.4-2.8-3.6-2.8-6.2-1.5l-4.5,2.3l6.3,12.2l3.1-1.6l-2.1-4.1l1.3-0.7
		c1.2,1.1,2.5,2.3,3.6,3.3l3.3-1.7c-1.5-1.3-3-2.5-4.5-3.6C189,231.1,189,229.6,188.3,228.4 M184.5,232l-1.2,0.6l-1.7-3.2l1.2-0.6
		c0.6-0.5,1.5-0.3,1.9,0.3c0.1,0.1,0.1,0.2,0.2,0.4l0.2,0.5c0.4,0.6,0.3,1.5-0.4,1.9C184.7,231.9,184.6,232,184.5,232"/>
	<path id="Path_6896" class="st0" d="M190.8,221c1.7,4.3,3.5,8.7,5.3,12.9l2.9-2c-0.4-0.8-0.8-1.6-1.1-2.3l2.6-1.8
		c0.6,0.6,1.2,1.2,1.8,1.9l2.9-2c-3.4-3.2-6.8-6.5-10.2-9.6L190.8,221z M198.6,225.8l-1.9,1.3l-0.3-0.7c-0.7-1.5-1.4-3-1.9-4.3
		l0.2-0.1c1,1,2.2,2.1,3.4,3.3C198.3,225.4,198.4,225.6,198.6,225.8"/>
	
		<rect id="Rectangle_670" x="203.9" y="211.6" transform="matrix(0.7622 -0.6473 0.6473 0.7622 -92.4913 185.0552)" class="st0" width="3.5" height="13.7"/>
	<path id="Path_6897" class="st0" d="M210.4,204.5l3.1,3c0.6,0.5,1.5,1.4,2.1,2l0,0c-0.8-0.3-2.7-0.8-4-1.1l-4.1-0.9l-2.1,2.1
		l9.9,9.5l2.2-2.3l-3.2-3.1c-0.6-0.5-1.5-1.4-2.1-2l0,0c0.8,0.3,2.6,0.8,4,1.1l4.2,1l2-2.1l-9.9-9.5L210.4,204.5z"/>
	<path id="Path_6898" class="st0" d="M225.6,203.1l-2-1.5l2.7-3.6l-2.3-1.7l-2.7,3.6l-2-1.5l2.8-3.8l-2.3-1.7l-4.9,6.6l11,8.2
		l4.9-6.6l-2.3-1.7L225.6,203.1z"/>
	<path id="Path_6899" class="st0" d="M234,184.9l-2.4-1.4c-1.2-0.9-2.8-1.2-4.2-0.9c-1.4,0.5-2.6,1.6-3.2,3l-2.4,4.3l11.9,6.8
		l2.4-4.3c1.7-2.1,1.4-5.1-0.7-6.8C235,185.3,234.5,185.1,234,184.9 M233.6,191.2l-0.7,1.2l-7.1-4.1l0.7-1.2
		c0.5-0.8,0.9-1.1,1.3-1.2c0.6-0.1,1.3,0.1,1.8,0.5l3.1,1.8c0.6,0.3,1,0.8,1.3,1.3C234.1,190,234,190.7,233.6,191.2"/>
	<path id="Path_6900" class="st0" d="M230.8,180.6c1.4,0.7,2.7,0.1,3.4-1.5s0.3-2.9-1.2-3.5l-0.9-0.4c-1.5-0.7-2.7-0.1-3.4,1.5
		s-0.3,2.9,1.1,3.5L230.8,180.6z M229.4,176.9c0.2-0.9,1.2-1.5,2.1-1.2c0.2,0,0.3,0.1,0.4,0.2l0.8,0.3c1,0.5,1.4,1.7,0.9,2.7
		c-0.5,0.9-1.6,1.3-2.5,1l-0.8-0.3c-0.9-0.3-1.4-1.3-1.1-2.2C229.2,177.2,229.3,177.1,229.4,176.9"/>
	<path id="Path_6901" class="st0" d="M232.8,178.8l-1-0.4l0.1-0.3c0.4,0,0.8,0,1.2,0l0.3-0.7c-0.4,0-0.9,0-1.3,0
		c0-0.4-0.3-0.7-0.6-0.8l-0.1,0c-0.4-0.3-1-0.1-1.2,0.3c0,0.1-0.1,0.1-0.1,0.2l-0.5,1l2.9,1.3L232.8,178.8z M231.4,177.9l-0.1,0.3
		l-0.9-0.4l0.1-0.3c0.1-0.3,0.3-0.4,0.6-0.2l0.1,0c0.2,0,0.3,0.3,0.3,0.5C231.5,177.8,231.5,177.8,231.4,177.9"/>
	<path id="Path_6902" class="st0" d="M91.6,78.7v-1h-3.3v7.7h3.3v-1h-2.2V82h2v-1h-2v-2.3H91.6z"/>
	<path id="Path_6903" class="st0" d="M96.1,84.5c-0.2,0-0.4-0.1-0.6-0.3c-0.2-0.2-0.2-0.5-0.2-1.2h-1.1c-0.1,0.7,0.1,1.3,0.5,1.9
		c0.4,0.4,0.9,0.6,1.4,0.5c1,0.1,1.8-0.6,1.9-1.6c0-0.1,0-0.2,0-0.3v-0.2c0.1-0.9-0.5-1.8-1.3-2.2l-0.5-0.3
		c-0.7-0.4-0.9-0.7-0.9-1.3v-0.1c0-0.6,0.3-0.9,0.8-0.9c0.2,0,0.5,0.1,0.6,0.3c0.1,0.2,0.2,0.5,0.2,1.1H98c0.1-0.6-0.1-1.2-0.4-1.7
		c-0.4-0.4-0.9-0.6-1.5-0.6c-1-0.1-1.8,0.6-1.9,1.6c0,0.1,0,0.2,0,0.3v0.2c-0.1,0.9,0.5,1.8,1.3,2.1L96,82c0.8,0.4,0.9,0.7,0.9,1.4
		v0.1C96.9,84.2,96.6,84.5,96.1,84.5"/>
	<path id="Path_6904" class="st0" d="M102.9,85.4v-6.7h1.3v-1h-3.8v1h1.4v6.7H102.9z"/>
	<rect id="Rectangle_671" x="106.1" y="84" class="st0" width="1" height="1.4"/>
	<path id="Path_6905" class="st0" d="M162.4,82.5l-1.4,2v0.8h3.8v-1h-2.5l1.1-1.5c1-1.3,1.3-1.9,1.3-3.1v-0.2c0.1-1-0.6-1.9-1.6-2
		c-0.1,0-0.2,0-0.3,0c-0.6,0-1.2,0.2-1.5,0.7c-0.4,0.4-0.4,0.9-0.4,1.9h1.1c-0.1-0.4,0-0.8,0.2-1.2c0.1-0.2,0.4-0.4,0.7-0.3
		c0.5,0,0.8,0.3,0.8,1v0.2C163.6,80.8,163.3,81.2,162.4,82.5"/>
	<path id="Path_6906" class="st0" d="M168,78.2c-0.4,0.6-0.6,1.3-0.5,2v2.8c-0.1,0.7,0.1,1.4,0.5,2c0.4,0.4,0.9,0.6,1.5,0.6
		c0.6,0,1.1-0.2,1.5-0.6c0.4-0.6,0.6-1.3,0.5-2v-2.8c0.1-0.7-0.1-1.4-0.5-2c-0.4-0.4-0.9-0.6-1.5-0.6C169,77.6,168.4,77.8,168,78.2
		 M170.2,79c0.2,0.4,0.3,0.8,0.2,1.2V83c0.1,0.4,0,0.8-0.2,1.2c-0.3,0.4-0.8,0.4-1.2,0.1c0,0-0.1-0.1-0.1-0.1
		c-0.2-0.3-0.3-0.8-0.2-1.2v-2.9c-0.1-0.4,0-0.8,0.2-1.2c0.3-0.4,0.8-0.4,1.2-0.1C170.1,78.9,170.1,78.9,170.2,79"/>
	<path id="Path_6907" class="st0" d="M176.6,85.4v-7.7h-0.7c-0.5,0.3-1.2,0.8-1.8,1.1v1.1c0.4-0.2,1-0.6,1.4-0.9v6.4L176.6,85.4z"/>
	<path id="Path_6908" class="st0" d="M179.6,83.1v0.3c0,1.2,1,2.1,2.2,2.1c1.1,0,2.1-0.9,2.1-2.1v-0.3c0.1-0.8-0.3-1.5-1-1.8
		c0.6-0.3,1-0.9,0.9-1.6v-0.3c-0.1-1.1-1.1-2-2.2-1.9c-1,0.1-1.8,0.9-1.9,1.9v0.3c-0.1,0.7,0.3,1.3,0.9,1.6
		C179.9,81.7,179.5,82.4,179.6,83.1 M180.8,79.6c0-0.5,0.4-1,0.9-1c0.5,0,1,0.4,1,0.9c0,0,0,0.1,0,0.1v0.3c0,0.5-0.4,1-0.9,1
		c-0.5,0-1-0.4-1-0.9c0,0,0-0.1,0-0.1V79.6z M180.8,82.9c0-0.6,0.4-1,0.9-1.1c0.6,0,1,0.4,1.1,0.9c0,0.1,0,0.1,0,0.2v0.5
		c0,0.6-0.4,1-0.9,1.1s-1-0.4-1.1-0.9c0-0.1,0-0.1,0-0.2V82.9z"/>
	<path id="Path_6909" class="st0" d="M93.8,183.6c0,0.6,0.5,1.1,1.1,1.1s1.1-0.5,1.1-1.1c0-0.6-0.5-1.1-1.1-1.1c0,0,0,0,0,0
		C94.3,182.5,93.8,183,93.8,183.6C93.8,183.6,93.8,183.6,93.8,183.6"/>
	<path id="Path_6910" class="st0" d="M181.3,183.6c0-0.6-0.5-1.1-1.1-1.1s-1.1,0.5-1.1,1.1s0.5,1.1,1.1,1.1c0,0,0,0,0,0
		C180.8,184.7,181.3,184.2,181.3,183.6"/>
	<path id="Path_6911" class="st0" d="M120,183.6c0,0.6,0.5,1.1,1.1,1.1s1.1-0.5,1.1-1.1c0-0.6-0.5-1.1-1.1-1.1c0,0,0,0,0,0
		C120.5,182.5,120,183,120,183.6"/>
	<path id="Path_6912" class="st0" d="M167.1,184.7c0.6,0,1.1-0.5,1.1-1.1s-0.5-1.1-1.1-1.1s-1.1,0.5-1.1,1.1
		S166.5,184.7,167.1,184.7L167.1,184.7"/>
	<path id="Path_6913" class="st0" d="M108,182.5c-0.6,0-1.1,0.5-1.1,1.1c0,0.6,0.5,1.1,1.1,1.1c0.6,0,1.1-0.5,1.1-1.1c0,0,0,0,0,0
		C109.1,183,108.6,182.5,108,182.5"/>
	<path id="Path_6914" class="st0" d="M113.5,183.6c0,0.6,0.5,1.1,1.1,1.1c0,0,0,0,0,0c0.6,0,1.1-0.5,1.1-1.1c0-0.6-0.5-1.1-1.1-1.1
		C114,182.5,113.5,183,113.5,183.6C113.5,183.6,113.5,183.6,113.5,183.6"/>
	<path id="Path_6915" class="st0" d="M159.4,183.6c0,0.6,0.5,1.1,1.1,1.1s1.1-0.5,1.1-1.1c0-0.6-0.5-1.1-1.1-1.1c0,0,0,0,0,0
		C159.9,182.5,159.4,183,159.4,183.6"/>
	<path id="Path_6916" class="st0" d="M172.5,183.6c0,0.6,0.5,1.1,1.1,1.1s1.1-0.5,1.1-1.1c0-0.6-0.5-1.1-1.1-1.1
		C173,182.5,172.5,183,172.5,183.6"/>
	<path id="Path_6917" class="st0" d="M133.1,183.6c0,0.6,0.5,1.1,1.1,1.1s1.1-0.5,1.1-1.1c0-0.6-0.5-1.1-1.1-1.1c0,0,0,0,0,0
		C133.6,182.5,133.1,183,133.1,183.6"/>
	<path id="Path_6918" class="st0" d="M102.6,183.6c0-0.6-0.5-1.1-1.1-1.1s-1.1,0.5-1.1,1.1c0,0.6,0.5,1.1,1.1,1.1c0,0,0,0,0,0
		C102.1,184.7,102.6,184.2,102.6,183.6C102.6,183.6,102.6,183.6,102.6,183.6"/>
	<path id="Path_6919" class="st0" d="M126.6,183.6c0,0.6,0.5,1.1,1.1,1.1s1.1-0.5,1.1-1.1c0-0.6-0.5-1.1-1.1-1.1c0,0,0,0,0,0
		C127.1,182.5,126.6,183,126.6,183.6C126.6,183.6,126.6,183.6,126.6,183.6"/>
	<path id="Path_6920" class="st0" d="M154,182.5c-0.6,0-1.1,0.5-1.1,1.1c0,0.6,0.5,1.1,1.1,1.1c0.6,0,1.1-0.5,1.1-1.1c0,0,0,0,0,0
		C155.1,183,154.6,182.5,154,182.5"/>
	<path id="Path_6921" class="st0" d="M139.7,183.6c0,0.6,0.5,1.1,1.1,1.1s1.1-0.5,1.1-1.1s-0.5-1.1-1.1-1.1c0,0,0,0,0,0
		C140.2,182.5,139.7,183,139.7,183.6"/>
	<path id="Path_6922" class="st0" d="M147.4,182.5c-0.6,0-1.1,0.5-1.1,1.1c0,0.6,0.5,1.1,1.1,1.1c0.6,0,1.1-0.5,1.1-1.1c0,0,0,0,0,0
		C148.5,183,148,182.5,147.4,182.5C147.4,182.5,147.4,182.5,147.4,182.5"/>
	<path id="Path_6923" class="st0" d="M87.2,183.6c0,0.6,0.5,1.1,1.1,1.1s1.1-0.5,1.1-1.1c0-0.6-0.5-1.1-1.1-1.1c0,0,0,0,0,0
		C87.7,182.5,87.2,183,87.2,183.6"/>
	<path id="Path_6924" class="st0" d="M114.6,72.6v20.1l15.7-15l-10.6-10.1L114.6,72.6z"/>
	<path id="Path_6925" class="st0" d="M154,72.6l-19.7-18.8l-10.6,10.1L154,92.7V72.6z"/>
</g>
</svg>
