<?xml version="1.0" encoding="utf-8"?>
<!-- Generator: Adobe Illustrator 28.0.0, SVG Export Plug-In . SVG Version: 6.00 Build 0)  -->
<svg version="1.1" id="ig-icon" xmlns="http://www.w3.org/2000/svg" xmlns:xlink="http://www.w3.org/1999/xlink" x="0px" y="0px"
	 viewBox="0 0 28.7 28.7" style="enable-background:new 0 0 28.7 28.7;" xml:space="preserve">
<style type="text/css">
	.st0{fill:#004356;}
</style>
<path id="Path_517" class="st0" d="M21,5.5L21,5.5c-1,0-1.8,0.8-1.8,1.8S20,9.1,21,9.1l0,0h0c0.5,0,0.9-0.2,1.3-0.6
	c0.3-0.3,0.5-0.8,0.5-1.3c0-0.5-0.2-0.9-0.6-1.3C21.9,5.6,21.4,5.4,21,5.5"/>
<path id="Path_518" class="st0" d="M28.7,14.1c0-1.7-0.1-4.3-0.2-5.8c0-1.2-0.3-2.4-0.7-3.5c-0.4-1-1-1.8-1.7-2.6
	c-0.7-0.7-1.6-1.3-2.6-1.6C22.3,0.2,21.1,0,19.9,0c0.7,0-1.9,0-5.8,0c-1.7,0-4.3,0.1-5.8,0.2C7.1,0.3,6,0.5,4.9,1
	C3.9,1.4,3,2,2.3,2.7C1.6,3.5,1,4.3,0.7,5.3C0.2,6.5,0,7.6,0,8.9c-0.1-0.6,0,2,0,5.8c0,1.7,0.1,4.3,0.2,5.8c0,1.2,0.3,2.4,0.7,3.5
	c0.4,1,1,1.8,1.7,2.6c0.7,0.7,1.6,1.3,2.6,1.6c1.1,0.4,2.3,0.6,3.5,0.6c0.7,0,1.2,0,1.9,0c0.2,0,1.9,0,3.8,0c1.7,0,4.2-0.1,5.8-0.2
	c1.2,0,2.4-0.3,3.5-0.7c1-0.4,1.8-1,2.6-1.7c0.7-0.7,1.3-1.6,1.6-2.6c0.4-1.1,0.6-2.3,0.6-3.5C28.7,18.4,28.7,17.9,28.7,14.1
	 M25.5,19.8L25.5,19.8c0,0.8-0.2,1.7-0.4,2.5c-0.2,0.6-0.5,1.1-1,1.5c-0.4,0.4-0.9,0.8-1.5,1c-0.8,0.4-1.6,0.5-2.5,0.5
	c0.6,0-1.9,0.1-5.6,0.2c-1.6,0.1-4.1,0.1-5.6,0c-0.8,0-1.7-0.2-2.5-0.4c-0.6-0.2-1.1-0.5-1.5-0.9c-0.4-0.4-0.8-0.9-1-1.5
	c-0.4-0.8-0.5-1.6-0.5-2.5c0,0.6-0.1-1.9-0.2-5.6c-0.1-1.7-0.1-4.2,0-5.6c0-0.8,0.2-1.7,0.4-2.5c0.2-0.6,0.5-1.1,0.9-1.5
	c0.4-0.4,0.9-0.8,1.5-1c0.8-0.3,1.6-0.5,2.5-0.5c-0.6,0,1.9-0.1,5.6-0.2c2,0,3.1,0,3.8,0c0.3,0,1.1,0,1.8,0c0.8,0,1.7,0.2,2.5,0.4
	c0.6,0.2,1.1,0.5,1.5,0.9c0.4,0.4,0.8,0.9,1,1.5c0.4,0.8,0.5,1.6,0.5,2.5c0-0.6,0.1,1.9,0.2,5.6C25.6,17.9,25.6,18.4,25.5,19.8"/>
<path id="Path_519" class="st0" d="M14.4,8.6h-0.1c-3.7,0.1-6.7,3.1-6.6,6.8c0.1,3.7,3,6.6,6.7,6.6h0.1c1.8,0,3.5-0.8,4.7-2.1
	c2.6-2.7,2.5-6.9-0.2-9.5C17.8,9.3,16.1,8.6,14.4,8.6 M14.4,19.2c-2.1,0-3.9-1.8-3.9-3.9c0-2.1,1.7-3.8,3.8-3.9c0,0,0,0,0.1,0
	c1,0,2,0.4,2.7,1.1c1.5,1.5,1.6,3.9,0.1,5.5C16.4,18.7,15.5,19.2,14.4,19.2L14.4,19.2z"/>
</svg>
