<?xml version="1.0" encoding="utf-8"?>
<!-- Generator: Adobe Illustrator 28.0.0, SVG Export Plug-In . SVG Version: 6.00 Build 0)  -->
<svg version="1.1" id="go-texan" xmlns="http://www.w3.org/2000/svg" xmlns:xlink="http://www.w3.org/1999/xlink" x="0px" y="0px"
	 viewBox="0 0 39 46.5" style="enable-background:new 0 0 39 46.5;" xml:space="preserve">
<style type="text/css">
	.st0{fill:#D5D5D5;}
</style>
<path id="Path_2687" class="st0" d="M31.3,8c0.7,0.9,1.4,1.8,2,2.7v0.1c1.2,2.1,1.9,4.5,2.1,7c0.2,3.1-0.6,6.2-2.2,8.9V27
	c-0.9,1.3-1.9,2.6-3,3.7c-0.3,0.2-0.6,0.5-0.9,0.7c-0.5,0.3-1.1,0.7-1.6,1.1h-0.1c-0.4,0.3-1,0.5-1.4,0.8c-0.6,0.2-1.2,0.4-1.8,0.6
	c-3.1,1.1-6.5,1.1-9.7,0.2c-3.4-1.1-6.4-3.3-8.5-6.2v-0.1c0-0.1-0.1-0.1-0.1-0.1c-0.2-0.3-0.4-0.7-0.6-1v-0.1c-1-1.9-1.7-3.9-2-6
	c0-0.1-0.2,0-0.2-0.1c-0.8,0.1-1.6,0.1-2.3,0.3l-0.1,0.1c0.1,1,0.2,2,0.5,2.9c0.2,0.4,0.3,0.9,0.4,1.4c0.3,0.1,0.1,0.5,0.3,0.7
	c0.6,1.5,1.4,3,2.4,4.3c0.5,0.7,1.1,1.2,1.6,1.9c0.8,0.7,1.6,1.4,2.4,2.1h0.1c0.1,0.3,0.4,0.3,0.6,0.5c0.1,0,0.1,0,0.1-0.1l-0.1,0.1
	c5.7,3.6,12.8,3.9,18.8,0.8h0.1c0.3-0.3,0.8-0.4,1-0.7h0.1c0.3-0.3,0.7-0.5,1-0.7c0.3-0.3,0.7-0.6,1-0.8c0-0.1,0-0.1,0.1-0.1
	c2.1-1.8,3.9-4,5-6.5c0.1-0.3,0.2-0.7,0.4-1c0.1-0.4,0.2-0.8,0.4-1.2c0-0.2,0-0.3,0.1-0.5c0.4-1.5,0.6-3,0.8-4.5c0-2-0.2-4-0.7-5.9
	c-0.2-0.3-0.3-0.7-0.3-1c-0.9-2.3-2.2-4.5-3.8-6.4c-2.7-3-6.3-5-10.2-5.9c-0.4,0-0.8-0.1-1.2-0.2c-0.5,0-0.9,0-1.4-0.1
	c-1,0-2,0-3.1,0.1C16,0.3,14.5,0.7,13,1.2c-0.3,0.2-0.6,0.3-0.9,0.3c-0.9,0.4-1.8,0.9-2.7,1.4C8,3.9,6.7,5,5.5,6.3
	C4.9,6.9,4.4,7.6,3.8,8.4v0.1C3.4,9,3.2,9.7,2.8,10.2c0,0.2-0.1,0.4-0.3,0.6c-0.8,1.8-1.4,3.7-1.6,5.7c-0.2,0.7,0.1,1.4,0.6,1.8
	c0.1,0,0.3,0.1,0.5,0.1c3.5,0.1,6.9,0,10.3,0.1c0.2-0.1,0.4-0.1,0.6-0.1c0.3-0.2,0.5-0.4,0.7-0.7c0.1-0.1,0-0.3,0.1-0.5V8.1
	c1.1-0.1,2.1-0.1,3.2,0c0.3,1.2-0.3,2.6,0.3,3.7c0.3,0.6,0.9,1.1,1.5,1.4c0.6,0.2,1.3,0.4,2,0.5c1.1,0.1,2.1,0.1,3.2,0.2
	c0.7,0.1,1.4,0.1,2.1,0.3s1.5,0,2.2,0.1c0.1,0,0.3,0.1,0.4-0.1c0,0.1,0.1,0.1,0.1,0.1c0.2,0.7,0.3,1.4,0.5,2.1
	c0.2,0.1,0.3,0.3,0.3,0.5l0.1,0.1v0.1c0.3,0.7,0.6,1.5,0.7,2.2c0,0.3,0,0.7-0.1,1c-1,0.7-1.9,1.5-2.7,2.4c-0.4,0.2-0.8,0.4-1.2,0.6
	c-1.2,1-2.2,2.3-2.9,3.7c-0.1,0.9-0.2,1.8-0.2,2.7c-0.4,0-0.8-0.2-1.1-0.3c-0.5-0.7-1-1.6-1.5-2.4c-0.5-0.5-0.9-1-1.3-1.4v-0.1
	c-0.1-0.1-0.2-0.2-0.3-0.3C18.7,24,18,22.8,17,21.9c-0.2,0-0.4-0.1-0.5-0.3c-0.6-0.1-1.1-0.2-1.7-0.4c-1.2-0.8-2,0.7-2.9,1.4
	c-0.5,0.2-1-0.4-1.4-0.5c-0.2-0.2-0.4-0.3-0.5-0.5c0-0.2-0.3-0.3-0.3-0.5c-0.5-0.5-1-1-1.6-1.5H7.8c-0.6,0.6-1.1,1.1-1.6,1.8v0.1
	l1.2,1.2c0.2,0.5,0.5,1,0.9,1.4c0.3,0.2,0.6,0.3,0.9,0.5c0.6,0.3,1.2,0.6,1.8,1c0.3,0.1,0.6,0.2,1,0.1c0.9-0.4,1.8-0.9,2.5-1.6
	c0.4,0,0.7,0.1,1,0.3c0.2,0.2,0.3,0.4,0.5,0.6c0.5,1.5,1.4,2.8,2.5,3.9c0.2,0.4,0.4,0.7,0.7,1c0.2,0.5,0.5,0.9,0.8,1.4
	c0.6,0.5,1.2,0.9,2,1.2c0.3,0.1,0.6,0.2,1,0.3c0.5,0.1,1.1,0.1,1.6,0.3c0.2,0,0.5-0.1,0.7-0.1c0.6-0.2,1-0.8,1-1.4
	c-0.1-0.3,0-0.7-0.1-1c-0.1-0.8,0-1.7,0.1-2.5c0.1-0.3,0.4-0.6,0.5-1c0.3-0.3,0.7-0.7,1-1.2c0.5-0.1,0.9-0.4,1.2-0.7h0.1
	c0.5-0.4,1-0.9,1.4-1.4c0.5-0.2,0.8-0.6,1.2-0.8c0.3-0.3,0.6-0.7,0.9-1.1c0.5-1.2,0.5-2.6,0.1-3.8l0.1-0.1c-0.2-0.8-0.5-1.5-0.9-2.2
	c-0.3-1.2-0.6-2.4-1-3.5c-0.1-0.1-0.3-0.3-0.4-0.4c-0.3-0.1-0.5-0.1-0.7-0.3c-1.1,0-2.2,0-3.3-0.1c-0.9,0-1.7-0.2-2.6-0.3
	c-1.1,0-2.1,0-3.2-0.2c-0.3,0-0.7-0.1-1-0.2c-0.1-1.4,0.1-2.9-0.1-4.4c-0.1-0.1-0.1-0.3-0.2-0.4c-0.1-0.2-0.3-0.3-0.5-0.4
	c-0.2-0.1-0.5-0.1-0.7-0.2c-2.2,0.1-4.4-0.1-6.5,0.1c-0.3,0.2-0.6,0.5-0.8,0.8c-0.1,0.2,0,0.5-0.1,0.7c-0.1,3,0.1,5.9-0.1,8.9H4
	c-0.2-0.1-0.1-0.5-0.1-0.6c0.4-1.7,1.1-3.3,2-4.8v-0.1c0.7-1,1.4-1.8,2.1-2.7c1.5-1.5,3.3-2.6,5.2-3.5c1-0.4,2.1-0.7,3.1-1
	c0.7-0.1,1.4-0.2,2.2-0.3c1.7,0,3.4,0.1,5,0.5c0.1,0.1,0.3,0.2,0.5,0.1c0.1,0.1,0.1,0.1,0.1,0.1c0.3,0,0.5,0.2,0.9,0.2
	c0.7,0.3,1.4,0.6,2.1,1c0.4,0.1,0.7,0.3,1,0.6h0.1C29.4,6.1,30.4,7,31.3,8"/>
<path id="Path_2688" class="st0" d="M32.5,46.4v-3.1c0-0.2,0-0.3,0-0.5c0-0.2,0-0.4-0.1-0.7c0.1,0.3,0.2,0.5,0.3,0.7
	c0.1,0.1,0.1,0.3,0.2,0.4l1.9,3.2h1.3v-6.2h-1.3v3.1c0,0.2,0,0.3,0,0.5c0,0.2,0,0.4,0.1,0.7c-0.1-0.3-0.2-0.5-0.3-0.7
	s-0.1-0.3-0.2-0.4l-1.9-3.2h-1.3v6.2H32.5z M26.9,46.4l0.3-1.1h1.9l0.3,1.1h1.4L29,40.2h-1.7l-1.7,6.2H26.9z M28,42
	c0-0.1,0.1-0.3,0.1-0.4s0.1-0.3,0.1-0.4c0,0.2,0.1,0.4,0.1,0.5s0,0.2,0.1,0.3l0.5,2h-1.4L28,42z M22.4,40.2h-1.6l1.7,2.9l-1.9,3.2
	h1.5l0.9-1.8c0-0.1,0.1-0.2,0.1-0.2c0-0.1,0.1-0.2,0.1-0.3c0,0.1,0,0.2,0.1,0.3c0,0.1,0.1,0.2,0.1,0.3l0.8,1.8h1.5l-1.8-3.2l1.7-3
	h-1.6l-0.6,1.4l0,0c-0.1,0.1-0.1,0.3-0.2,0.5c0-0.2-0.1-0.3-0.2-0.5v0L22.4,40.2z M20.3,46.4V45h-1.7v-1h1.6v-1.3h-1.6v-1.1h1.7
	v-1.4h-3.1v6.2L20.3,46.4z M15.5,46.4v-4.7h1.1v-1.5H13v1.5h1.1v4.7L15.5,46.4z"/>
<path id="Path_2689" class="st0" d="M6.9,44.5c-0.2-0.4-0.3-0.8-0.3-1.3c0-0.5,0.1-0.9,0.3-1.3c0.2-0.3,0.5-0.5,0.8-0.5
	c0.4,0,0.7,0.2,0.8,0.5c0.4,0.8,0.4,1.8,0,2.6c-0.3,0.5-0.8,0.6-1.3,0.4C7.1,44.8,7,44.7,6.9,44.5 M10,42c-0.1-0.4-0.3-0.7-0.5-1
	c-0.2-0.3-0.5-0.5-0.8-0.7C8.4,40.1,8.1,40,7.8,40c-0.3,0-0.6,0.1-0.9,0.2c-0.3,0.2-0.6,0.4-0.8,0.7c-0.2,0.3-0.4,0.7-0.5,1
	c-0.2,0.8-0.2,1.7,0,2.5c0.1,0.4,0.3,0.7,0.5,1c0.2,0.3,0.5,0.5,0.8,0.7c0.6,0.3,1.3,0.3,1.9,0c0.3-0.2,0.6-0.4,0.8-0.7
	c0.2-0.3,0.4-0.7,0.5-1c0.1-0.4,0.2-0.8,0.2-1.2C10.2,42.8,10.1,42.4,10,42 M3.6,44c0,0.3-0.2,0.6-0.4,0.8c-0.2,0.2-0.5,0.3-0.8,0.3
	c-0.4,0-0.7-0.2-0.9-0.5c-0.2-0.4-0.3-0.9-0.3-1.4c0-0.5,0.1-1,0.3-1.4c0.2-0.3,0.5-0.5,0.9-0.5c0.2,0,0.4,0.1,0.5,0.2
	c0.2,0.1,0.3,0.3,0.4,0.5l1.1-0.7C4.3,41,4,40.6,3.6,40.4C3.3,40.1,2.8,40,2.4,40c-0.3,0-0.7,0.1-1,0.2c-0.3,0.2-0.6,0.4-0.8,0.7
	c-0.2,0.3-0.4,0.7-0.5,1C0.1,42.4,0,42.8,0,43.2c0,0.4,0.1,0.9,0.2,1.3c0.1,0.4,0.3,0.7,0.5,1c0.2,0.3,0.5,0.5,0.8,0.7
	c0.3,0.2,0.6,0.2,1,0.2c0.7,0,1.3-0.3,1.7-0.9c0.5-0.7,0.7-1.6,0.6-2.5c0-0.1,0-0.2,0-0.2c0-0.1,0-0.1,0-0.1H2.3V44L3.6,44z"/>
<path id="Path_2690" class="st0" d="M37.6,46.3c0.1,0.1,0.2,0.2,0.3,0.2h0.5c0.1,0,0.3-0.1,0.3-0.2c0.2-0.2,0.2-0.4,0.2-0.6v0
	c0-0.2-0.1-0.4-0.2-0.6c-0.2-0.2-0.4-0.3-0.6-0.2c-0.2,0-0.4,0.1-0.6,0.2c-0.2,0.2-0.2,0.4-0.2,0.6C37.3,45.9,37.4,46.1,37.6,46.3"
	/>
</svg>
