<?xml version="1.0" encoding="utf-8"?>
<!-- Generator: Adobe Illustrator 27.9.0, SVG Export Plug-In . SVG Version: 6.00 Build 0)  -->
<svg version="1.1" id="Layer_1" xmlns="http://www.w3.org/2000/svg" xmlns:xlink="http://www.w3.org/1999/xlink" x="0px" y="0px"
	 viewBox="0 0 215.9 44.4" style="enable-background:new 0 0 215.9 44.4;" xml:space="preserve">
<style type="text/css">
	.st0{fill:#FFFFFF;}
</style>
<g id="Group_1315" transform="translate(0)">
	<g id="Group_1313" transform="translate(40.422)">
		<path id="Path_2671" class="st0" d="M16.8,43.8H0v-0.4l4.2-3.3V19.8L0,15.5v-0.4h12.6V19l0.2-0.1c5.5-2.9,8.8-4.1,12.2-4.1
			c6.1,0,8.4,2.8,8.4,11v14.4l4.2,3.3v0.4H20.8v-0.4l4.2-3.3V25.5c0-4.6-1.3-6.5-5.1-6.5c-2.5,0.1-4.9,0.8-7.1,1.9L12.5,21v19.2
			l4.2,3.3L16.8,43.8z"/>
		<path id="Path_2672" class="st0" d="M64.2,30.5c0-6.8-2.5-14.1-7.9-14.1c-4.4,0-6.4,5.3-6.4,11.7c0,7.1,2.7,14.4,7.9,14.4
			C61.9,42.5,64.2,37.2,64.2,30.5 M41,29.7c0-9.5,7.9-15.2,16.4-15.2c9,0,15.6,6.4,15.6,14.7c0,9.4-7.9,15.1-16.4,15.1
			C47.6,44.4,41,38.1,41,29.7"/>
		<path id="Path_2673" class="st0" d="M88.9,44.4c-6.8,0-7.9-4.4-7.9-10V17.6h-4.5v-2.5H81l7.4-7.9h1v7.9h9.2v2.5h-9.2v17.7
			c0,3.4,1.3,4.9,4.6,4.9c1.7-0.1,3.5-0.5,5.1-1.1V40C96.4,42.7,92.7,44.3,88.9,44.4"/>
		<path id="Path_2674" class="st0" d="M102.4,29.7c0-8.6,5.7-15.2,15.2-15.2c3.6,0,7.1,0.6,10.5,1.9v9.3h-0.2l-9.9-9.5h-0.5
			c-4.1,0-6.5,3.4-6.5,10.3c0,5.4,2.3,13.4,11.4,13.4c2.4-0.1,4.7-0.7,6.8-1.8v0.8c-1.8,2.2-6.8,5.4-12.7,5.4
			C107.8,44.4,102.4,38.1,102.4,29.7"/>
		<path id="Path_2675" class="st0" d="M149.3,43.8h-16.7v-0.4l4.2-3.3V4.7l-4.2-4.3V0h12.5v18.8l0.2-0.2c3.6-2.5,7.9-4,12.3-4.1
			c7.1,0,8.4,3.6,8.4,11.1v14.5l4.2,3.3v0.4h-16.7v-0.4l4.2-3.3V25.2c0-4.6-1.3-6.4-5.1-6.4c-2.6,0-5.2,0.7-7.5,2v19.4l4.2,3.3
			L149.3,43.8z"/>
	</g>
	<path id="Path_2676" class="st0" d="M8.2,13.2l9.5-9l17.7,16.9v18.1L8.2,13.2z M0,21.1v18.1l14.1-13.5l-9.5-9L0,21.1z"/>
	<g id="Group_1314" transform="translate(211.503 39.718)">
		<path id="Path_2677" class="st0" d="M4.4,1.8v0.6c0,1.1-0.8,1.8-2.2,1.8C0.9,4.1,0,3.5,0,2.3V1.8C0,0.6,0.9,0,2.2,0
			C3.6,0,4.4,0.6,4.4,1.8z M3.8,1.8c0-0.8-0.5-1.3-1.6-1.3S0.6,1,0.6,1.8v0.5c0,0.8,0.5,1.3,1.6,1.3s1.6-0.5,1.6-1.3V1.8z M2.8,2.4
			C3,2.6,3.1,2.9,3.3,3.1H2.6C2.5,2.9,2.4,2.7,2.3,2.5H2v0.6H1.4V1h1.1C2.8,1,3.1,1.2,3.2,1.6c0,0,0,0.1,0,0.1v0
			C3.2,2,3.1,2.3,2.8,2.4L2.8,2.4z M2,2h0.3c0.2,0,0.3-0.1,0.3-0.3v0c0-0.1-0.1-0.3-0.2-0.3c0,0,0,0-0.1,0H2L2,2z"/>
	</g>
</g>
</svg>
